<?xml version="1.0" encoding="UTF-8" standalone="no"?>
<!DOCTYPE svg PUBLIC "-//W3C//DTD SVG 1.1//EN"
 "http://www.w3.org/Graphics/SVG/1.1/DTD/svg11.dtd">
<!-- Generated by graphviz version 2.26.3 (20100126.1600)
 -->
<!-- Title: controllers_diagram Pages: 1 -->
<svg width="1205pt" height="1027pt"
 viewBox="0.00 0.00 1205.34 1027.00" xmlns="http://www.w3.org/2000/svg" xmlns:xlink="http://www.w3.org/1999/xlink">
<g id="graph1" class="graph" transform="scale(1 1) rotate(0) translate(4 1023)">
<title>controllers_diagram</title>
<polygon fill="white" stroke="white" points="-4,5 -4,-1023 1202.34,-1023 1202.34,5 -4,5"/>
<!-- _diagram_info -->
<g id="node1" class="node"><title>_diagram_info</title>
<text text-anchor="start" x="201" y="-974.3" font-family="Times Roman,serif" font-size="13.00">Controllers diagram</text>
<text text-anchor="start" x="201" y="-957.3" font-family="Times Roman,serif" font-size="13.00">Date: Mar 10 2014 &#45; 14:07</text>
<text text-anchor="start" x="201" y="-940.3" font-family="Times Roman,serif" font-size="13.00">Migration version: 20140308210602</text>
<text text-anchor="start" x="201" y="-923.3" font-family="Times Roman,serif" font-size="13.00">Generated by RailRoady 1.1.1</text>
<text text-anchor="start" x="201" y="-906.3" font-family="Times Roman,serif" font-size="13.00">http://railroady.prestonlee.com</text>
</g>
<!-- FeedbackMessagesController -->
<g id="node2" class="node"><title>FeedbackMessagesController</title>
<polyline fill="none" stroke="black" points="13,-325.117 203,-325.117 "/>
<path fill="none" stroke="black" d="M203,-325.117C209,-325.117 215,-331.117 215,-337.117"/>
<polyline fill="none" stroke="black" points="215,-337.117 215,-487.117 "/>
<path fill="none" stroke="black" d="M215,-487.117C215,-493.117 209,-499.117 203,-499.117"/>
<polyline fill="none" stroke="black" points="203,-499.117 13,-499.117 "/>
<path fill="none" stroke="black" d="M13,-499.117C7,-499.117 1,-493.117 1,-487.117"/>
<polyline fill="none" stroke="black" points="1,-487.117 1,-337.117 "/>
<path fill="none" stroke="black" d="M1,-337.117C1,-331.117 7,-325.117 13,-325.117"/>
<text text-anchor="middle" x="108" y="-482.517" font-family="Times Roman,serif" font-size="14.00">FeedbackMessagesController</text>
<polyline fill="none" stroke="black" points="1,-473.117 215,-473.117 "/>
<text text-anchor="start" x="9" y="-456.517" font-family="Times Roman,serif" font-size="14.00">create</text>
<text text-anchor="start" x="9" y="-438.517" font-family="Times Roman,serif" font-size="14.00">edit</text>
<text text-anchor="start" x="9" y="-420.517" font-family="Times Roman,serif" font-size="14.00">new</text>
<polyline fill="none" stroke="black" points="1,-411.117 215,-411.117 "/>
<polyline fill="none" stroke="black" points="1,-387.117 215,-387.117 "/>
<text text-anchor="start" x="9" y="-370.517" font-family="Times Roman,serif" font-size="14.00">_layout</text>
<text text-anchor="start" x="9" y="-352.517" font-family="Times Roman,serif" font-size="14.00">feedback_message_params</text>
<text text-anchor="start" x="9" y="-334.517" font-family="Times Roman,serif" font-size="14.00">set_feedback_message</text>
</g>
<!-- DealsController -->
<g id="node3" class="node"><title>DealsController</title>
<polyline fill="none" stroke="black" points="888.059,-453.509 987.059,-453.509 "/>
<path fill="none" stroke="black" d="M987.059,-453.509C993.059,-453.509 999.059,-459.509 999.059,-465.509"/>
<polyline fill="none" stroke="black" points="999.059,-465.509 999.059,-543.509 "/>
<path fill="none" stroke="black" d="M999.059,-543.509C999.059,-549.509 993.059,-555.509 987.059,-555.509"/>
<polyline fill="none" stroke="black" points="987.059,-555.509 888.059,-555.509 "/>
<path fill="none" stroke="black" d="M888.059,-555.509C882.059,-555.509 876.059,-549.509 876.059,-543.509"/>
<polyline fill="none" stroke="black" points="876.059,-543.509 876.059,-465.509 "/>
<path fill="none" stroke="black" d="M876.059,-465.509C876.059,-459.509 882.059,-453.509 888.059,-453.509"/>
<text text-anchor="middle" x="937.559" y="-538.909" font-family="Times Roman,serif" font-size="14.00">DealsController</text>
<polyline fill="none" stroke="black" points="876.059,-529.509 999.059,-529.509 "/>
<text text-anchor="start" x="884.059" y="-512.909" font-family="Times Roman,serif" font-size="14.00">show</text>
<polyline fill="none" stroke="black" points="876.059,-503.509 999.059,-503.509 "/>
<polyline fill="none" stroke="black" points="876.059,-479.509 999.059,-479.509 "/>
<text text-anchor="start" x="884.059" y="-462.909" font-family="Times Roman,serif" font-size="14.00">_layout</text>
</g>
<!-- FunCategoriesController -->
<g id="node4" class="node"><title>FunCategoriesController</title>
<polyline fill="none" stroke="black" points="318.595,-18.0953 478.595,-18.0953 "/>
<path fill="none" stroke="black" d="M478.595,-18.0953C484.595,-18.0953 490.595,-24.0953 490.595,-30.0953"/>
<polyline fill="none" stroke="black" points="490.595,-30.0953 490.595,-126.095 "/>
<path fill="none" stroke="black" d="M490.595,-126.095C490.595,-132.095 484.595,-138.095 478.595,-138.095"/>
<polyline fill="none" stroke="black" points="478.595,-138.095 318.595,-138.095 "/>
<path fill="none" stroke="black" d="M318.595,-138.095C312.595,-138.095 306.595,-132.095 306.595,-126.095"/>
<polyline fill="none" stroke="black" points="306.595,-126.095 306.595,-30.0953 "/>
<path fill="none" stroke="black" d="M306.595,-30.0953C306.595,-24.0953 312.595,-18.0953 318.595,-18.0953"/>
<text text-anchor="middle" x="398.595" y="-121.495" font-family="Times Roman,serif" font-size="14.00">FunCategoriesController</text>
<polyline fill="none" stroke="black" points="306.595,-112.095 490.595,-112.095 "/>
<text text-anchor="start" x="314.595" y="-95.4953" font-family="Times Roman,serif" font-size="14.00">index</text>
<text text-anchor="start" x="314.595" y="-77.4953" font-family="Times Roman,serif" font-size="14.00">show</text>
<polyline fill="none" stroke="black" points="306.595,-68.0953 490.595,-68.0953 "/>
<polyline fill="none" stroke="black" points="306.595,-44.0953 490.595,-44.0953 "/>
<text text-anchor="start" x="314.595" y="-27.4953" font-family="Times Roman,serif" font-size="14.00">_layout</text>
</g>
<!-- OmniauthCallbacksController -->
<g id="node5" class="node"><title>OmniauthCallbacksController</title>
<polyline fill="none" stroke="black" points="589,-897.5 783,-897.5 "/>
<path fill="none" stroke="black" d="M783,-897.5C789,-897.5 795,-903.5 795,-909.5"/>
<polyline fill="none" stroke="black" points="795,-909.5 795,-1005.5 "/>
<path fill="none" stroke="black" d="M795,-1005.5C795,-1011.5 789,-1017.5 783,-1017.5"/>
<polyline fill="none" stroke="black" points="783,-1017.5 589,-1017.5 "/>
<path fill="none" stroke="black" d="M589,-1017.5C583,-1017.5 577,-1011.5 577,-1005.5"/>
<polyline fill="none" stroke="black" points="577,-1005.5 577,-909.5 "/>
<path fill="none" stroke="black" d="M577,-909.5C577,-903.5 583,-897.5 589,-897.5"/>
<text text-anchor="middle" x="686" y="-1000.9" font-family="Times Roman,serif" font-size="14.00">OmniauthCallbacksController</text>
<polyline fill="none" stroke="black" points="577,-991.5 795,-991.5 "/>
<text text-anchor="start" x="585" y="-974.9" font-family="Times Roman,serif" font-size="14.00">all</text>
<text text-anchor="start" x="585" y="-956.9" font-family="Times Roman,serif" font-size="14.00">facebook</text>
<polyline fill="none" stroke="black" points="577,-947.5 795,-947.5 "/>
<polyline fill="none" stroke="black" points="577,-923.5 795,-923.5 "/>
<text text-anchor="start" x="585" y="-906.9" font-family="Times Roman,serif" font-size="14.00">_layout</text>
</g>
<!-- OtherCategoriesController -->
<g id="node6" class="node"><title>OtherCategoriesController</title>
<polyline fill="none" stroke="black" points="400.286,-700.687 575.286,-700.687 "/>
<path fill="none" stroke="black" d="M575.286,-700.687C581.286,-700.687 587.286,-706.687 587.286,-712.687"/>
<polyline fill="none" stroke="black" points="587.286,-712.687 587.286,-808.687 "/>
<path fill="none" stroke="black" d="M587.286,-808.687C587.286,-814.687 581.286,-820.687 575.286,-820.687"/>
<polyline fill="none" stroke="black" points="575.286,-820.687 400.286,-820.687 "/>
<path fill="none" stroke="black" d="M400.286,-820.687C394.286,-820.687 388.286,-814.687 388.286,-808.687"/>
<polyline fill="none" stroke="black" points="388.286,-808.687 388.286,-712.687 "/>
<path fill="none" stroke="black" d="M388.286,-712.687C388.286,-706.687 394.286,-700.687 400.286,-700.687"/>
<text text-anchor="middle" x="487.786" y="-804.087" font-family="Times Roman,serif" font-size="14.00">OtherCategoriesController</text>
<polyline fill="none" stroke="black" points="388.286,-794.687 587.286,-794.687 "/>
<text text-anchor="start" x="396.286" y="-778.087" font-family="Times Roman,serif" font-size="14.00">index</text>
<text text-anchor="start" x="396.286" y="-760.087" font-family="Times Roman,serif" font-size="14.00">show</text>
<polyline fill="none" stroke="black" points="388.286,-750.687 587.286,-750.687 "/>
<polyline fill="none" stroke="black" points="388.286,-726.687 587.286,-726.687 "/>
<text text-anchor="start" x="396.286" y="-710.087" font-family="Times Roman,serif" font-size="14.00">_layout</text>
</g>
<!-- EventsController -->
<g id="node7" class="node"><title>EventsController</title>
<polyline fill="none" stroke="black" points="647.795,-654.109 755.795,-654.109 "/>
<path fill="none" stroke="black" d="M755.795,-654.109C761.795,-654.109 767.795,-660.109 767.795,-666.109"/>
<polyline fill="none" stroke="black" points="767.795,-666.109 767.795,-762.109 "/>
<path fill="none" stroke="black" d="M767.795,-762.109C767.795,-768.109 761.795,-774.109 755.795,-774.109"/>
<polyline fill="none" stroke="black" points="755.795,-774.109 647.795,-774.109 "/>
<path fill="none" stroke="black" d="M647.795,-774.109C641.795,-774.109 635.795,-768.109 635.795,-762.109"/>
<polyline fill="none" stroke="black" points="635.795,-762.109 635.795,-666.109 "/>
<path fill="none" stroke="black" d="M635.795,-666.109C635.795,-660.109 641.795,-654.109 647.795,-654.109"/>
<text text-anchor="middle" x="701.795" y="-757.509" font-family="Times Roman,serif" font-size="14.00">EventsController</text>
<polyline fill="none" stroke="black" points="635.795,-748.109 767.795,-748.109 "/>
<text text-anchor="start" x="643.795" y="-731.509" font-family="Times Roman,serif" font-size="14.00">index</text>
<text text-anchor="start" x="643.795" y="-713.509" font-family="Times Roman,serif" font-size="14.00">show</text>
<polyline fill="none" stroke="black" points="635.795,-704.109 767.795,-704.109 "/>
<polyline fill="none" stroke="black" points="635.795,-680.109 767.795,-680.109 "/>
<text text-anchor="start" x="643.795" y="-663.509" font-family="Times Roman,serif" font-size="14.00">_layout</text>
</g>
<!-- FoodCategoriesController -->
<g id="node8" class="node"><title>FoodCategoriesController</title>
<polyline fill="none" stroke="black" points="253.281,-567.616 420.281,-567.616 "/>
<path fill="none" stroke="black" d="M420.281,-567.616C426.281,-567.616 432.281,-573.616 432.281,-579.616"/>
<polyline fill="none" stroke="black" points="432.281,-579.616 432.281,-675.616 "/>
<path fill="none" stroke="black" d="M432.281,-675.616C432.281,-681.616 426.281,-687.616 420.281,-687.616"/>
<polyline fill="none" stroke="black" points="420.281,-687.616 253.281,-687.616 "/>
<path fill="none" stroke="black" d="M253.281,-687.616C247.281,-687.616 241.281,-681.616 241.281,-675.616"/>
<polyline fill="none" stroke="black" points="241.281,-675.616 241.281,-579.616 "/>
<path fill="none" stroke="black" d="M241.281,-579.616C241.281,-573.616 247.281,-567.616 253.281,-567.616"/>
<text text-anchor="middle" x="336.781" y="-671.016" font-family="Times Roman,serif" font-size="14.00">FoodCategoriesController</text>
<polyline fill="none" stroke="black" points="241.281,-661.616 432.281,-661.616 "/>
<text text-anchor="start" x="249.281" y="-645.016" font-family="Times Roman,serif" font-size="14.00">index</text>
<text text-anchor="start" x="249.281" y="-627.016" font-family="Times Roman,serif" font-size="14.00">show</text>
<polyline fill="none" stroke="black" points="241.281,-617.616 432.281,-617.616 "/>
<polyline fill="none" stroke="black" points="241.281,-593.616 432.281,-593.616 "/>
<text text-anchor="start" x="249.281" y="-577.016" font-family="Times Roman,serif" font-size="14.00">_layout</text>
</g>
<!-- LikesController -->
<g id="node9" class="node"><title>LikesController</title>
<polyline fill="none" stroke="black" points="64.7757,-40.5147 160.776,-40.5147 "/>
<path fill="none" stroke="black" d="M160.776,-40.5147C166.776,-40.5147 172.776,-46.5147 172.776,-52.5147"/>
<polyline fill="none" stroke="black" points="172.776,-52.5147 172.776,-148.515 "/>
<path fill="none" stroke="black" d="M172.776,-148.515C172.776,-154.515 166.776,-160.515 160.776,-160.515"/>
<polyline fill="none" stroke="black" points="160.776,-160.515 64.7757,-160.515 "/>
<path fill="none" stroke="black" d="M64.7757,-160.515C58.7757,-160.515 52.7757,-154.515 52.7757,-148.515"/>
<polyline fill="none" stroke="black" points="52.7757,-148.515 52.7757,-52.5147 "/>
<path fill="none" stroke="black" d="M52.7757,-52.5147C52.7757,-46.5147 58.7757,-40.5147 64.7757,-40.5147"/>
<text text-anchor="middle" x="112.776" y="-143.915" font-family="Times Roman,serif" font-size="14.00">LikesController</text>
<polyline fill="none" stroke="black" points="52.7757,-134.515 172.776,-134.515 "/>
<text text-anchor="start" x="60.7757" y="-117.915" font-family="Times Roman,serif" font-size="14.00">create</text>
<text text-anchor="start" x="60.7757" y="-99.9147" font-family="Times Roman,serif" font-size="14.00">destroy</text>
<polyline fill="none" stroke="black" points="52.7757,-90.5147 172.776,-90.5147 "/>
<polyline fill="none" stroke="black" points="52.7757,-66.5147 172.776,-66.5147 "/>
<text text-anchor="start" x="60.7757" y="-49.9147" font-family="Times Roman,serif" font-size="14.00">_layout</text>
</g>
<!-- FunShopsController -->
<g id="node10" class="node"><title>FunShopsController</title>
<polyline fill="none" stroke="black" points="855.448,-246.681 983.448,-246.681 "/>
<path fill="none" stroke="black" d="M983.448,-246.681C989.448,-246.681 995.448,-252.681 995.448,-258.681"/>
<polyline fill="none" stroke="black" points="995.448,-258.681 995.448,-336.681 "/>
<path fill="none" stroke="black" d="M995.448,-336.681C995.448,-342.681 989.448,-348.681 983.448,-348.681"/>
<polyline fill="none" stroke="black" points="983.448,-348.681 855.448,-348.681 "/>
<path fill="none" stroke="black" d="M855.448,-348.681C849.448,-348.681 843.448,-342.681 843.448,-336.681"/>
<polyline fill="none" stroke="black" points="843.448,-336.681 843.448,-258.681 "/>
<path fill="none" stroke="black" d="M843.448,-258.681C843.448,-252.681 849.448,-246.681 855.448,-246.681"/>
<text text-anchor="middle" x="919.448" y="-332.081" font-family="Times Roman,serif" font-size="14.00">FunShopsController</text>
<polyline fill="none" stroke="black" points="843.448,-322.681 995.448,-322.681 "/>
<text text-anchor="start" x="851.448" y="-306.081" font-family="Times Roman,serif" font-size="14.00">show</text>
<polyline fill="none" stroke="black" points="843.448,-296.681 995.448,-296.681 "/>
<polyline fill="none" stroke="black" points="843.448,-272.681 995.448,-272.681 "/>
<text text-anchor="start" x="851.448" y="-256.081" font-family="Times Roman,serif" font-size="14.00">_layout</text>
</g>
<!-- RelationshipsController -->
<g id="node11" class="node"><title>RelationshipsController</title>
<polyline fill="none" stroke="black" points="321.099,-303.402 473.099,-303.402 "/>
<path fill="none" stroke="black" d="M473.099,-303.402C479.099,-303.402 485.099,-309.402 485.099,-315.402"/>
<polyline fill="none" stroke="black" points="485.099,-315.402 485.099,-411.402 "/>
<path fill="none" stroke="black" d="M485.099,-411.402C485.099,-417.402 479.099,-423.402 473.099,-423.402"/>
<polyline fill="none" stroke="black" points="473.099,-423.402 321.099,-423.402 "/>
<path fill="none" stroke="black" d="M321.099,-423.402C315.099,-423.402 309.099,-417.402 309.099,-411.402"/>
<polyline fill="none" stroke="black" points="309.099,-411.402 309.099,-315.402 "/>
<path fill="none" stroke="black" d="M309.099,-315.402C309.099,-309.402 315.099,-303.402 321.099,-303.402"/>
<text text-anchor="middle" x="397.099" y="-406.802" font-family="Times Roman,serif" font-size="14.00">RelationshipsController</text>
<polyline fill="none" stroke="black" points="309.099,-397.402 485.099,-397.402 "/>
<text text-anchor="start" x="317.099" y="-380.802" font-family="Times Roman,serif" font-size="14.00">create</text>
<text text-anchor="start" x="317.099" y="-362.802" font-family="Times Roman,serif" font-size="14.00">destroy</text>
<polyline fill="none" stroke="black" points="309.099,-353.402 485.099,-353.402 "/>
<polyline fill="none" stroke="black" points="309.099,-329.402 485.099,-329.402 "/>
<text text-anchor="start" x="317.099" y="-312.802" font-family="Times Roman,serif" font-size="14.00">_layout</text>
</g>
<!-- PollVotesController -->
<g id="node12" class="node"><title>PollVotesController</title>
<polyline fill="none" stroke="black" points="874.562,-1.5 997.562,-1.5 "/>
<path fill="none" stroke="black" d="M997.562,-1.5C1003.56,-1.5 1009.56,-7.5 1009.56,-13.5"/>
<polyline fill="none" stroke="black" points="1009.56,-13.5 1009.56,-109.5 "/>
<path fill="none" stroke="black" d="M1009.56,-109.5C1009.56,-115.5 1003.56,-121.5 997.562,-121.5"/>
<polyline fill="none" stroke="black" points="997.562,-121.5 874.562,-121.5 "/>
<path fill="none" stroke="black" d="M874.562,-121.5C868.562,-121.5 862.562,-115.5 862.562,-109.5"/>
<polyline fill="none" stroke="black" points="862.562,-109.5 862.562,-13.5 "/>
<path fill="none" stroke="black" d="M862.562,-13.5C862.562,-7.5 868.562,-1.5 874.562,-1.5"/>
<text text-anchor="middle" x="936.062" y="-104.9" font-family="Times Roman,serif" font-size="14.00">PollVotesController</text>
<polyline fill="none" stroke="black" points="862.562,-95.5 1009.56,-95.5 "/>
<text text-anchor="start" x="870.562" y="-78.9" font-family="Times Roman,serif" font-size="14.00">create</text>
<text text-anchor="start" x="870.562" y="-60.9" font-family="Times Roman,serif" font-size="14.00">destroy</text>
<polyline fill="none" stroke="black" points="862.562,-51.5 1009.56,-51.5 "/>
<polyline fill="none" stroke="black" points="862.562,-27.5 1009.56,-27.5 "/>
<text text-anchor="start" x="870.562" y="-10.9" font-family="Times Roman,serif" font-size="14.00">_layout</text>
</g>
<!-- AttendingsController -->
<g id="node13" class="node"><title>AttendingsController</title>
<polyline fill="none" stroke="black" points="576.722,-47.581 712.722,-47.581 "/>
<path fill="none" stroke="black" d="M712.722,-47.581C718.722,-47.581 724.722,-53.581 724.722,-59.581"/>
<polyline fill="none" stroke="black" points="724.722,-59.581 724.722,-155.581 "/>
<path fill="none" stroke="black" d="M724.722,-155.581C724.722,-161.581 718.722,-167.581 712.722,-167.581"/>
<polyline fill="none" stroke="black" points="712.722,-167.581 576.722,-167.581 "/>
<path fill="none" stroke="black" d="M576.722,-167.581C570.722,-167.581 564.722,-161.581 564.722,-155.581"/>
<polyline fill="none" stroke="black" points="564.722,-155.581 564.722,-59.581 "/>
<path fill="none" stroke="black" d="M564.722,-59.581C564.722,-53.581 570.722,-47.581 576.722,-47.581"/>
<text text-anchor="middle" x="644.722" y="-150.981" font-family="Times Roman,serif" font-size="14.00">AttendingsController</text>
<polyline fill="none" stroke="black" points="564.722,-141.581 724.722,-141.581 "/>
<text text-anchor="start" x="572.722" y="-124.981" font-family="Times Roman,serif" font-size="14.00">create</text>
<text text-anchor="start" x="572.722" y="-106.981" font-family="Times Roman,serif" font-size="14.00">destroy</text>
<polyline fill="none" stroke="black" points="564.722,-97.581 724.722,-97.581 "/>
<polyline fill="none" stroke="black" points="564.722,-73.581 724.722,-73.581 "/>
<text text-anchor="start" x="572.722" y="-56.981" font-family="Times Roman,serif" font-size="14.00">_layout</text>
</g>
<!-- UsersController -->
<g id="node14" class="node"><title>UsersController</title>
<polyline fill="none" stroke="black" points="57.6584,-657.914 156.658,-657.914 "/>
<path fill="none" stroke="black" d="M156.658,-657.914C162.658,-657.914 168.658,-663.914 168.658,-669.914"/>
<polyline fill="none" stroke="black" points="168.658,-669.914 168.658,-801.914 "/>
<path fill="none" stroke="black" d="M168.658,-801.914C168.658,-807.914 162.658,-813.914 156.658,-813.914"/>
<polyline fill="none" stroke="black" points="156.658,-813.914 57.6584,-813.914 "/>
<path fill="none" stroke="black" d="M57.6584,-813.914C51.6584,-813.914 45.6584,-807.914 45.6584,-801.914"/>
<polyline fill="none" stroke="black" points="45.6584,-801.914 45.6584,-669.914 "/>
<path fill="none" stroke="black" d="M45.6584,-669.914C45.6584,-663.914 51.6584,-657.914 57.6584,-657.914"/>
<text text-anchor="middle" x="107.158" y="-797.314" font-family="Times Roman,serif" font-size="14.00">UsersController</text>
<polyline fill="none" stroke="black" points="45.6584,-787.914 168.658,-787.914 "/>
<text text-anchor="start" x="53.6584" y="-771.314" font-family="Times Roman,serif" font-size="14.00">followers</text>
<text text-anchor="start" x="53.6584" y="-753.314" font-family="Times Roman,serif" font-size="14.00">following</text>
<text text-anchor="start" x="53.6584" y="-735.314" font-family="Times Roman,serif" font-size="14.00">show</text>
<text text-anchor="start" x="53.6584" y="-717.314" font-family="Times Roman,serif" font-size="14.00">update</text>
<polyline fill="none" stroke="black" points="45.6584,-707.914 168.658,-707.914 "/>
<polyline fill="none" stroke="black" points="45.6584,-683.914 168.658,-683.914 "/>
<text text-anchor="start" x="53.6584" y="-667.314" font-family="Times Roman,serif" font-size="14.00">_layout</text>
</g>
<!-- ApplicationController -->
<g id="node15" class="node"><title>ApplicationController</title>
<polyline fill="none" stroke="black" points="564.027,-377.643 701.027,-377.643 "/>
<path fill="none" stroke="black" d="M701.027,-377.643C707.027,-377.643 713.027,-383.643 713.027,-389.643"/>
<polyline fill="none" stroke="black" points="713.027,-389.643 713.027,-465.643 "/>
<path fill="none" stroke="black" d="M713.027,-465.643C713.027,-471.643 707.027,-477.643 701.027,-477.643"/>
<polyline fill="none" stroke="black" points="701.027,-477.643 564.027,-477.643 "/>
<path fill="none" stroke="black" d="M564.027,-477.643C558.027,-477.643 552.027,-471.643 552.027,-465.643"/>
<polyline fill="none" stroke="black" points="552.027,-465.643 552.027,-389.643 "/>
<path fill="none" stroke="black" d="M552.027,-389.643C552.027,-383.643 558.027,-377.643 564.027,-377.643"/>
<text text-anchor="middle" x="632.527" y="-461.043" font-family="Times Roman,serif" font-size="14.00">ApplicationController</text>
<polyline fill="none" stroke="black" points="552.027,-451.643 713.027,-451.643 "/>
<polyline fill="none" stroke="black" points="552.027,-427.643 713.027,-427.643 "/>
<polyline fill="none" stroke="black" points="552.027,-403.643 713.027,-403.643 "/>
<text text-anchor="start" x="560.027" y="-387.043" font-family="Times Roman,serif" font-size="14.00">_layout</text>
</g>
<!-- ApplicationController&#45;&gt;FeedbackMessagesController -->
<g id="edge2" class="edge"><title>ApplicationController&#45;&gt;FeedbackMessagesController</title>
<path fill="none" stroke="black" d="M551.957,-428.952C485.828,-429.649 389.764,-429.801 305.899,-426.602 276.466,-425.479 244.619,-423.491 215.253,-421.34"/>
</g>
<!-- ApplicationController&#45;&gt;DealsController -->
<g id="edge4" class="edge"><title>ApplicationController&#45;&gt;DealsController</title>
<path fill="none" stroke="black" d="M713.07,-447.94C764.081,-460.794 829.029,-477.16 875.928,-488.978"/>
</g>
<!-- ApplicationController&#45;&gt;FunCategoriesController -->
<g id="edge6" class="edge"><title>ApplicationController&#45;&gt;FunCategoriesController</title>
<path fill="none" stroke="black" d="M599.011,-377.562C556.751,-314.416 484.167,-205.959 438.919,-138.348"/>
</g>
<!-- ApplicationController&#45;&gt;OtherCategoriesController -->
<g id="edge10" class="edge"><title>ApplicationController&#45;&gt;OtherCategoriesController</title>
<path fill="none" stroke="black" d="M610.701,-477.864C584.798,-537.467 541.639,-636.774 513.964,-700.454"/>
</g>
<!-- ApplicationController&#45;&gt;EventsController -->
<g id="edge12" class="edge"><title>ApplicationController&#45;&gt;EventsController</title>
<path fill="none" stroke="black" d="M644.672,-477.87C656.545,-526.971 674.63,-601.764 687.26,-654"/>
</g>
<!-- ApplicationController&#45;&gt;FoodCategoriesController -->
<g id="edge14" class="edge"><title>ApplicationController&#45;&gt;FoodCategoriesController</title>
<path fill="none" stroke="black" d="M558.28,-477.847C517.985,-505.093 467.897,-538.96 425.549,-567.594"/>
</g>
<!-- ApplicationController&#45;&gt;LikesController -->
<g id="edge16" class="edge"><title>ApplicationController&#45;&gt;LikesController</title>
<path fill="none" stroke="black" d="M581.893,-377.61C555.283,-352.723 521.389,-323.143 488.299,-300.202 383.47,-227.526 249.121,-162.004 172.827,-127.075"/>
</g>
<!-- ApplicationController&#45;&gt;FunShopsController -->
<g id="edge18" class="edge"><title>ApplicationController&#45;&gt;FunShopsController</title>
<path fill="none" stroke="black" d="M713.214,-391.096C753.989,-372.627 803.19,-350.341 843.309,-332.169"/>
</g>
<!-- ApplicationController&#45;&gt;RelationshipsController -->
<g id="edge20" class="edge"><title>ApplicationController&#45;&gt;RelationshipsController</title>
<path fill="none" stroke="black" d="M551.836,-405.625C530.405,-399.777 507.152,-393.432 485.341,-387.481"/>
</g>
<!-- ApplicationController&#45;&gt;PollVotesController -->
<g id="edge22" class="edge"><title>ApplicationController&#45;&gt;PollVotesController</title>
<path fill="none" stroke="black" d="M674.096,-377.501C729.381,-310.812 826.994,-193.065 886.185,-121.666"/>
</g>
<!-- ApplicationController&#45;&gt;AttendingsController -->
<g id="edge24" class="edge"><title>ApplicationController&#45;&gt;AttendingsController</title>
<path fill="none" stroke="black" d="M634.433,-377.634C636.597,-320.845 640.125,-228.231 642.436,-167.594"/>
</g>
<!-- ApplicationController&#45;&gt;UsersController -->
<g id="edge26" class="edge"><title>ApplicationController&#45;&gt;UsersController</title>
<path fill="none" stroke="black" d="M551.689,-441.344C467.131,-458.767 333.656,-495.275 238.081,-564.416 204.09,-589.006 174.781,-624.905 152.564,-657.512"/>
</g>
<!-- StaticPagesController -->
<g id="node16" class="node"><title>StaticPagesController</title>
<polyline fill="none" stroke="black" points="883.859,-658.131 1024.86,-658.131 "/>
<path fill="none" stroke="black" d="M1024.86,-658.131C1030.86,-658.131 1036.86,-664.131 1036.86,-670.131"/>
<polyline fill="none" stroke="black" points="1036.86,-670.131 1036.86,-838.131 "/>
<path fill="none" stroke="black" d="M1036.86,-838.131C1036.86,-844.131 1030.86,-850.131 1024.86,-850.131"/>
<polyline fill="none" stroke="black" points="1024.86,-850.131 883.859,-850.131 "/>
<path fill="none" stroke="black" d="M883.859,-850.131C877.859,-850.131 871.859,-844.131 871.859,-838.131"/>
<polyline fill="none" stroke="black" points="871.859,-838.131 871.859,-670.131 "/>
<path fill="none" stroke="black" d="M871.859,-670.131C871.859,-664.131 877.859,-658.131 883.859,-658.131"/>
<text text-anchor="middle" x="954.359" y="-833.531" font-family="Times Roman,serif" font-size="14.00">StaticPagesController</text>
<polyline fill="none" stroke="black" points="871.859,-824.131 1036.86,-824.131 "/>
<text text-anchor="start" x="879.859" y="-807.531" font-family="Times Roman,serif" font-size="14.00">about</text>
<text text-anchor="start" x="879.859" y="-789.531" font-family="Times Roman,serif" font-size="14.00">contact</text>
<text text-anchor="start" x="879.859" y="-771.531" font-family="Times Roman,serif" font-size="14.00">help</text>
<text text-anchor="start" x="879.859" y="-753.531" font-family="Times Roman,serif" font-size="14.00">home</text>
<text text-anchor="start" x="879.859" y="-735.531" font-family="Times Roman,serif" font-size="14.00">info</text>
<text text-anchor="start" x="879.859" y="-717.531" font-family="Times Roman,serif" font-size="14.00">legal</text>
<polyline fill="none" stroke="black" points="871.859,-708.131 1036.86,-708.131 "/>
<polyline fill="none" stroke="black" points="871.859,-684.131 1036.86,-684.131 "/>
<text text-anchor="start" x="879.859" y="-667.531" font-family="Times Roman,serif" font-size="14.00">_layout</text>
</g>
<!-- ApplicationController&#45;&gt;StaticPagesController -->
<g id="edge28" class="edge"><title>ApplicationController&#45;&gt;StaticPagesController</title>
<path fill="none" stroke="black" d="M682.108,-477.942C732.624,-529.188 811.852,-609.563 871.842,-670.421"/>
</g>
<!-- Devise::OmniauthCallbacksController -->
<g id="node20" class="node"><title>Devise::OmniauthCallbacksController</title>
<ellipse fill="none" stroke="black" cx="1003.34" cy="-957.5" rx="193.04" ry="18.3848"/>
<text text-anchor="middle" x="1003.34" y="-953.9" font-family="Times Roman,serif" font-size="14.00">Devise::OmniauthCallbacksController</text>
</g>
<!-- Devise::OmniauthCallbacksController&#45;&gt;OmniauthCallbacksController -->
<g id="edge8" class="edge"><title>Devise::OmniauthCallbacksController&#45;&gt;OmniauthCallbacksController</title>
<path fill="none" stroke="black" d="M810.053,-957.5C805.006,-957.5 800.008,-957.5 795.081,-957.5"/>
</g>
</g>
</svg>
