<?xml version="1.0" encoding="UTF-8" standalone="no"?>
<!DOCTYPE svg PUBLIC "-//W3C//DTD SVG 1.1//EN"
 "http://www.w3.org/Graphics/SVG/1.1/DTD/svg11.dtd">
<!-- Generated by graphviz version 2.26.3 (20100126.1600)
 -->
<!-- Title: models_diagram Pages: 1 -->
<svg width="2693pt" height="422pt"
 viewBox="0.00 0.00 2693.00 422.00" xmlns="http://www.w3.org/2000/svg" xmlns:xlink="http://www.w3.org/1999/xlink">
<g id="graph1" class="graph" transform="scale(1 1) rotate(0) translate(4 418)">
<title>models_diagram</title>
<polygon fill="white" stroke="white" points="-4,5 -4,-418 2690,-418 2690,5 -4,5"/>
<!-- _diagram_info -->
<g id="node1" class="node"><title>_diagram_info</title>
<text text-anchor="start" x="857" y="-397.8" font-family="Times Roman,serif" font-size="13.00">Models diagram</text>
<text text-anchor="start" x="857" y="-380.8" font-family="Times Roman,serif" font-size="13.00">Date: Mar 10 2014 &#45; 14:07</text>
<text text-anchor="start" x="857" y="-363.8" font-family="Times Roman,serif" font-size="13.00">Migration version: 20140308210602</text>
<text text-anchor="start" x="857" y="-346.8" font-family="Times Roman,serif" font-size="13.00">Generated by RailRoady 1.1.1</text>
<text text-anchor="start" x="857" y="-329.8" font-family="Times Roman,serif" font-size="13.00">http://railroady.prestonlee.com</text>
</g>
<!-- Image -->
<g id="node2" class="node"><title>Image</title>
<ellipse fill="none" stroke="black" cx="639" cy="-95" rx="41.2167" ry="18.3848"/>
<text text-anchor="middle" x="639" y="-91.4" font-family="Times Roman,serif" font-size="14.00">Image</text>
</g>
<!-- FunShop -->
<g id="node3" class="node"><title>FunShop</title>
<ellipse fill="none" stroke="black" cx="939" cy="-171" rx="53.2379" ry="18.3848"/>
<text text-anchor="middle" x="939" y="-167.4" font-family="Times Roman,serif" font-size="14.00">FunShop</text>
</g>
<!-- FunShop&#45;&gt;Image -->
<g id="edge10" class="edge"><title>FunShop&#45;&gt;Image</title>
<path fill="none" stroke="#4a3f9e" d="M884.432,-160.695C867.934,-157.722 849.752,-154.585 833,-152 771.435,-142.502 752.015,-156.688 694,-134 684.025,-130.099 674.154,-124.004 665.588,-117.783"/>
<ellipse fill="none" stroke="#4a3f9e" cx="888.446" cy="-161.424" rx="4.00001" ry="4.00001"/>
<polygon fill="#4a3f9e" stroke="#4a3f9e" points="665.442,-117.671 660.235,-108.021 661.471,-114.633 657.5,-111.595 657.5,-111.595 657.5,-111.595 661.471,-114.633 654.766,-115.169 665.442,-117.671 665.442,-117.671"/>
</g>
<!-- FunSubcategory -->
<g id="node5" class="node"><title>FunSubcategory</title>
<ellipse fill="none" stroke="black" cx="414" cy="-95" rx="90.0096" ry="18.3848"/>
<text text-anchor="middle" x="414" y="-91.4" font-family="Times Roman,serif" font-size="14.00">FunSubcategory</text>
</g>
<!-- FunShop&#45;&gt;FunSubcategory -->
<g id="edge6" class="edge"><title>FunShop&#45;&gt;FunSubcategory</title>
<path fill="none" stroke="#134330" d="M882.182,-160.225C866.294,-157.373 848.998,-154.418 833,-152 768.354,-142.229 751.809,-142.623 687,-134 623.355,-125.531 551.473,-115.233 497.451,-107.346"/>
<polygon fill="#134330" stroke="#134330" points="882.551,-160.292 891.587,-166.505 887.471,-161.185 892.391,-162.077 892.391,-162.077 892.391,-162.077 887.471,-161.185 893.194,-157.65 882.551,-160.292 882.551,-160.292"/>
<polygon fill="#134330" stroke="#134330" points="497.13,-107.299 487.886,-101.399 492.183,-106.575 487.235,-105.852 487.235,-105.852 487.235,-105.852 492.183,-106.575 486.584,-110.305 497.13,-107.299 497.13,-107.299"/>
</g>
<!-- Phone -->
<g id="node6" class="node"><title>Phone</title>
<ellipse fill="none" stroke="black" cx="1177" cy="-95" rx="41.9273" ry="18.3848"/>
<text text-anchor="middle" x="1177" y="-91.4" font-family="Times Roman,serif" font-size="14.00">Phone</text>
</g>
<!-- FunShop&#45;&gt;Phone -->
<g id="edge12" class="edge"><title>FunShop&#45;&gt;Phone</title>
<path fill="none" stroke="#d0beb6" d="M994.355,-161.116C1052.11,-150.742 1134.78,-135.698 1138,-134 1144.76,-130.442 1151.09,-125.317 1156.6,-119.945"/>
<ellipse fill="none" stroke="#d0beb6" cx="990.318" cy="-161.84" rx="4.00001" ry="4.00001"/>
<polygon fill="#d0beb6" stroke="#d0beb6" points="1156.7,-119.845 1166.85,-115.689 1160.14,-116.218 1163.58,-112.591 1163.58,-112.591 1163.58,-112.591 1160.14,-116.218 1160.32,-109.494 1156.7,-119.845 1156.7,-119.845"/>
</g>
<!-- FunSubcategorization -->
<g id="node7" class="node"><title>FunSubcategorization</title>
<ellipse fill="none" stroke="black" cx="414" cy="-19" rx="118.087" ry="18.3848"/>
<text text-anchor="middle" x="414" y="-15.4" font-family="Times Roman,serif" font-size="14.00">FunSubcategorization</text>
</g>
<!-- FunShop&#45;&gt;FunSubcategorization -->
<g id="edge4" class="edge"><title>FunShop&#45;&gt;FunSubcategorization</title>
<path fill="none" stroke="#0e37da" d="M885.225,-159.874C831.693,-148.21 753.758,-129.464 727,-114 706.321,-102.049 710.019,-87.3435 689,-76 658.594,-59.5906 577.571,-43.8804 511.294,-33.1244"/>
<ellipse fill="none" stroke="#0e37da" cx="889.357" cy="-160.768" rx="4.00001" ry="4.00001"/>
<polygon fill="#0e37da" stroke="#0e37da" points="511.086,-33.0912 501.925,-27.0645 506.149,-32.2995 501.212,-31.5077 501.212,-31.5077 501.212,-31.5077 506.149,-32.2995 500.5,-35.9509 511.086,-33.0912 511.086,-33.0912"/>
</g>
<!-- Deal -->
<g id="node15" class="node"><title>Deal</title>
<ellipse fill="none" stroke="black" cx="1027" cy="-95" rx="33.9411" ry="18.3848"/>
<text text-anchor="middle" x="1027" y="-91.4" font-family="Times Roman,serif" font-size="14.00">Deal</text>
</g>
<!-- FunShop&#45;&gt;Deal -->
<g id="edge18" class="edge"><title>FunShop&#45;&gt;Deal</title>
<path fill="none" stroke="#bb1473" d="M969.207,-149.228C975.545,-144.374 982.094,-139.139 988,-134 993.339,-129.355 998.845,-124.141 1003.98,-119.074"/>
<ellipse fill="none" stroke="#bb1473" cx="965.646" cy="-151.913" rx="4.00002" ry="4.00002"/>
<polygon fill="#bb1473" stroke="#bb1473" points="1004.12,-118.933 1014.36,-115.012 1007.64,-115.386 1011.17,-111.84 1011.17,-111.84 1011.17,-111.84 1007.64,-115.386 1007.98,-108.668 1004.12,-118.933 1004.12,-118.933"/>
</g>
<!-- Like -->
<g id="node16" class="node"><title>Like</title>
<ellipse fill="none" stroke="black" cx="1027" cy="-19" rx="31.8198" ry="18.3848"/>
<text text-anchor="middle" x="1027" y="-15.4" font-family="Times Roman,serif" font-size="14.00">Like</text>
</g>
<!-- FunShop&#45;&gt;Like -->
<g id="edge20" class="edge"><title>FunShop&#45;&gt;Like</title>
<path fill="none" stroke="#ee23f7" d="M949.618,-144.968C957.982,-125.451 970.461,-98.3663 984,-76 990.653,-65.0096 998.967,-53.5758 1006.51,-43.8588"/>
<ellipse fill="none" stroke="#ee23f7" cx="947.96" cy="-148.888" rx="4.00002" ry="4.00002"/>
<polygon fill="#ee23f7" stroke="#ee23f7" points="1006.67,-43.6575 1016.4,-38.6085 1009.77,-39.7367 1012.87,-35.8159 1012.87,-35.8159 1012.87,-35.8159 1009.77,-39.7367 1009.34,-33.0234 1006.67,-43.6575 1006.67,-43.6575"/>
</g>
<!-- Event -->
<g id="node19" class="node"><title>Event</title>
<ellipse fill="none" stroke="black" cx="1425" cy="-95" rx="39.8075" ry="18.3848"/>
<text text-anchor="middle" x="1425" y="-91.4" font-family="Times Roman,serif" font-size="14.00">Event</text>
</g>
<!-- FunShop&#45;&gt;Event -->
<g id="edge16" class="edge"><title>FunShop&#45;&gt;Event</title>
<path fill="none" stroke="#f096e3" d="M993.043,-160.15C1009.94,-157.096 1028.69,-154.051 1046,-152 1178.2,-136.336 1216.24,-167.821 1345,-134 1361.03,-129.79 1377.67,-122.262 1391.59,-114.936"/>
<ellipse fill="none" stroke="#f096e3" cx="988.845" cy="-160.923" rx="4.00001" ry="4.00001"/>
<polygon fill="#f096e3" stroke="#f096e3" points="1391.98,-114.726 1402.91,-113.89 1396.37,-112.332 1400.76,-109.939 1400.76,-109.939 1400.76,-109.939 1396.37,-112.332 1398.61,-105.988 1391.98,-114.726 1391.98,-114.726"/>
</g>
<!-- Comment -->
<g id="node21" class="node"><title>Comment</title>
<ellipse fill="none" stroke="black" cx="794" cy="-95" rx="58.1882" ry="18.3848"/>
<text text-anchor="middle" x="794" y="-91.4" font-family="Times Roman,serif" font-size="14.00">Comment</text>
</g>
<!-- FunShop&#45;&gt;Comment -->
<g id="edge8" class="edge"><title>FunShop&#45;&gt;Comment</title>
<path fill="none" stroke="#54267b" d="M902.083,-151.65C881.131,-140.668 854.907,-126.923 833.537,-115.723"/>
<ellipse fill="none" stroke="#54267b" cx="905.764" cy="-153.58" rx="4.00002" ry="4.00002"/>
<polygon fill="#54267b" stroke="#54267b" points="833.259,-115.577 826.491,-106.949 828.83,-113.256 824.402,-110.935 824.402,-110.935 824.402,-110.935 828.83,-113.256 822.313,-114.92 833.259,-115.577 833.259,-115.577"/>
</g>
<!-- Ad -->
<g id="node26" class="node"><title>Ad</title>
<ellipse fill="none" stroke="black" cx="897" cy="-95" rx="27" ry="18.3848"/>
<text text-anchor="middle" x="897" y="-91.4" font-family="Times Roman,serif" font-size="14.00">Ad</text>
</g>
<!-- FunShop&#45;&gt;Ad -->
<g id="edge14" class="edge"><title>FunShop&#45;&gt;Ad</title>
<path fill="none" stroke="#2fb7f2" d="M924.848,-145.391C920.543,-137.601 915.807,-129.031 911.481,-121.203"/>
<ellipse fill="none" stroke="#2fb7f2" cx="926.898" cy="-149.102" rx="4.00002" ry="4.00002"/>
<polygon fill="#2fb7f2" stroke="#2fb7f2" points="911.478,-121.197 910.579,-110.268 909.059,-116.821 906.641,-112.445 906.641,-112.445 906.641,-112.445 909.059,-116.821 902.702,-114.621 911.478,-121.197 911.478,-121.197"/>
</g>
<!-- PollOption -->
<g id="node4" class="node"><title>PollOption</title>
<ellipse fill="none" stroke="black" cx="2270" cy="-171" rx="61.0181" ry="18.3848"/>
<text text-anchor="middle" x="2270" y="-167.4" font-family="Times Roman,serif" font-size="14.00">PollOption</text>
</g>
<!-- PollVote -->
<g id="node13" class="node"><title>PollVote</title>
<ellipse fill="none" stroke="black" cx="2222" cy="-95" rx="50.9117" ry="18.3848"/>
<text text-anchor="middle" x="2222" y="-91.4" font-family="Times Roman,serif" font-size="14.00">PollVote</text>
</g>
<!-- PollOption&#45;&gt;PollVote -->
<g id="edge24" class="edge"><title>PollOption&#45;&gt;PollVote</title>
<path fill="none" stroke="#3c6a9b" d="M2253.93,-145.553C2249.12,-137.942 2243.84,-129.574 2238.97,-121.874"/>
<ellipse fill="none" stroke="#3c6a9b" cx="2256.24" cy="-149.221" rx="4.00002" ry="4.00002"/>
<polygon fill="#3c6a9b" stroke="#3c6a9b" points="2238.85,-121.683 2237.32,-110.825 2236.18,-117.456 2233.51,-113.228 2233.51,-113.228 2233.51,-113.228 2236.18,-117.456 2229.71,-115.631 2238.85,-121.683 2238.85,-121.683"/>
</g>
<!-- FunSubcategory&#45;&gt;FunSubcategorization -->
<g id="edge28" class="edge"><title>FunSubcategory&#45;&gt;FunSubcategorization</title>
<path fill="none" stroke="#6b0ded" d="M414,-68.0731C414,-61.4485 414,-54.332 414,-47.6302"/>
<ellipse fill="none" stroke="#6b0ded" cx="414" cy="-72.2135" rx="4" ry="4"/>
<polygon fill="#6b0ded" stroke="#6b0ded" points="414,-47.5704 418.5,-37.5704 414,-42.5704 414,-37.5704 414,-37.5704 414,-37.5704 414,-42.5704 409.5,-37.5705 414,-47.5704 414,-47.5704"/>
</g>
<!-- FunCategory -->
<g id="node8" class="node"><title>FunCategory</title>
<ellipse fill="none" stroke="black" cx="1012" cy="-263" rx="74.2462" ry="18.3848"/>
<text text-anchor="middle" x="1012" y="-259.4" font-family="Times Roman,serif" font-size="14.00">FunCategory</text>
</g>
<!-- FunCategory&#45;&gt;FunShop -->
<g id="edge36" class="edge"><title>FunCategory&#45;&gt;FunShop</title>
<path fill="none" stroke="#cd029d" d="M947.475,-247.603C937.411,-242.374 928.281,-235.373 922,-226 916.409,-217.656 917.827,-207.387 921.614,-197.99"/>
<ellipse fill="none" stroke="#cd029d" cx="951.32" cy="-249.406" rx="4.00002" ry="4.00002"/>
<polygon fill="#cd029d" stroke="#cd029d" points="921.623,-197.97 930.06,-190.965 923.821,-193.479 926.018,-188.988 926.018,-188.988 926.018,-188.988 923.821,-193.479 921.975,-187.01 921.623,-197.97 921.623,-197.97"/>
</g>
<!-- Poll -->
<g id="node9" class="node"><title>Poll</title>
<ellipse fill="none" stroke="black" cx="2238" cy="-263" rx="28.9914" ry="18.3848"/>
<text text-anchor="middle" x="2238" y="-259.4" font-family="Times Roman,serif" font-size="14.00">Poll</text>
</g>
<!-- Poll&#45;&gt;PollOption -->
<g id="edge40" class="edge"><title>Poll&#45;&gt;PollOption</title>
<path fill="none" stroke="#3a7172" d="M2246.95,-237.258C2251.08,-225.383 2256,-211.256 2260.22,-199.104"/>
<ellipse fill="none" stroke="#3a7172" cx="2245.64" cy="-241.046" rx="4.00001" ry="4.00001"/>
<polygon fill="#3a7172" stroke="#3a7172" points="2260.3,-198.898 2267.83,-190.932 2261.94,-194.176 2263.58,-189.453 2263.58,-189.453 2263.58,-189.453 2261.94,-194.176 2259.33,-187.975 2260.3,-198.898 2260.3,-198.898"/>
</g>
<!-- Relationship -->
<g id="node10" class="node"><title>Relationship</title>
<ellipse fill="none" stroke="black" cx="1762" cy="-171" rx="70.9184" ry="18.3848"/>
<text text-anchor="middle" x="1762" y="-167.4" font-family="Times Roman,serif" font-size="14.00">Relationship</text>
</g>
<!-- OtherShop -->
<g id="node11" class="node"><title>OtherShop</title>
<ellipse fill="none" stroke="black" cx="759" cy="-171" rx="65.0538" ry="18.3848"/>
<text text-anchor="middle" x="759" y="-167.4" font-family="Times Roman,serif" font-size="14.00">OtherShop</text>
</g>
<!-- OtherShop&#45;&gt;Image -->
<g id="edge52" class="edge"><title>OtherShop&#45;&gt;Image</title>
<path fill="none" stroke="#096dbd" d="M702.901,-155.835C689.244,-150.414 675.324,-143.272 664,-134 659.829,-130.585 656.128,-126.284 652.937,-121.796"/>
<ellipse fill="none" stroke="#096dbd" cx="706.7" cy="-157.264" rx="4.00001" ry="4.00001"/>
<polygon fill="#096dbd" stroke="#096dbd" points="652.791,-121.565 651.242,-110.71 650.116,-117.341 647.44,-113.117 647.44,-113.117 647.44,-113.117 650.116,-117.341 643.639,-115.525 652.791,-121.565 652.791,-121.565"/>
</g>
<!-- OtherShop&#45;&gt;Phone -->
<g id="edge54" class="edge"><title>OtherShop&#45;&gt;Phone</title>
<path fill="none" stroke="#459e42" d="M822.077,-159.532C905.749,-144.318 1051.71,-117.78 1127.75,-103.954"/>
<ellipse fill="none" stroke="#459e42" cx="818.012" cy="-160.271" rx="4.00001" ry="4.00001"/>
<polygon fill="#459e42" stroke="#459e42" points="1128.17,-103.878 1138.81,-106.517 1133.09,-102.984 1138.01,-102.089 1138.01,-102.089 1138.01,-102.089 1133.09,-102.984 1137.2,-97.6621 1128.17,-103.878 1128.17,-103.878"/>
</g>
<!-- OtherSubcategorization -->
<g id="node14" class="node"><title>OtherSubcategorization</title>
<ellipse fill="none" stroke="black" cx="129" cy="-19" rx="128.193" ry="18.3848"/>
<text text-anchor="middle" x="129" y="-15.4" font-family="Times Roman,serif" font-size="14.00">OtherSubcategorization</text>
</g>
<!-- OtherShop&#45;&gt;OtherSubcategorization -->
<g id="edge46" class="edge"><title>OtherShop&#45;&gt;OtherSubcategorization</title>
<path fill="none" stroke="#7b30e5" d="M688.25,-164.9C581.119,-155.16 383.019,-135.037 315,-114 311.234,-112.835 226.72,-69.3972 172.924,-41.6681"/>
<ellipse fill="none" stroke="#7b30e5" cx="692.45" cy="-165.28" rx="4" ry="4"/>
<polygon fill="#7b30e5" stroke="#7b30e5" points="172.806,-41.6072 165.979,-33.0249 168.361,-39.3159 163.917,-37.0246 163.917,-37.0246 163.917,-37.0246 168.361,-39.3159 161.855,-41.0243 172.806,-41.6072 172.806,-41.6072"/>
</g>
<!-- OtherShop&#45;&gt;Deal -->
<g id="edge60" class="edge"><title>OtherShop&#45;&gt;Deal</title>
<path fill="none" stroke="#605a4e" d="M812.997,-155.687C864.404,-141.109 940.595,-119.503 986.841,-106.388"/>
<ellipse fill="none" stroke="#605a4e" cx="808.919" cy="-156.844" rx="4.00001" ry="4.00001"/>
<polygon fill="#605a4e" stroke="#605a4e" points="986.895,-106.373 997.744,-107.974 991.706,-105.009 996.516,-103.645 996.516,-103.645 996.516,-103.645 991.706,-105.009 995.288,-99.3155 986.895,-106.373 986.895,-106.373"/>
</g>
<!-- OtherShop&#45;&gt;Like -->
<g id="edge62" class="edge"><title>OtherShop&#45;&gt;Like</title>
<path fill="none" stroke="#154b55" d="M695.812,-159.397C633.396,-145.246 552.199,-117.901 589,-76 614.929,-46.4777 880.1,-27.6908 984.804,-21.3732"/>
<ellipse fill="none" stroke="#154b55" cx="699.801" cy="-160.278" rx="4.00001" ry="4.00001"/>
<polygon fill="#154b55" stroke="#154b55" points="985.025,-21.3601 995.275,-25.2585 990.017,-21.0633 995.008,-20.7665 995.008,-20.7665 995.008,-20.7665 990.017,-21.0633 994.741,-16.2744 985.025,-21.3601 985.025,-21.3601"/>
</g>
<!-- OtherShop&#45;&gt;Event -->
<g id="edge58" class="edge"><title>OtherShop&#45;&gt;Event</title>
<path fill="none" stroke="#2f6425" d="M822.684,-160.076C840.254,-157.245 859.34,-154.338 877,-152 972.958,-139.294 1259.71,-111.052 1375.6,-99.7803"/>
<ellipse fill="none" stroke="#2f6425" cx="818.678" cy="-160.727" rx="4.00001" ry="4.00001"/>
<polygon fill="#2f6425" stroke="#2f6425" points="1375.66,-99.7742 1386.05,-103.286 1380.64,-99.2906 1385.61,-98.807 1385.61,-98.807 1385.61,-98.807 1380.64,-99.2906 1385.18,-94.3281 1375.66,-99.7742 1375.66,-99.7742"/>
</g>
<!-- OtherShop&#45;&gt;Comment -->
<g id="edge50" class="edge"><title>OtherShop&#45;&gt;Comment</title>
<path fill="none" stroke="#72058e" d="M767.688,-144.842C769.329,-140.502 771.124,-136.086 773,-132 774.462,-128.816 776.103,-125.541 777.807,-122.319"/>
<ellipse fill="none" stroke="#72058e" cx="766.28" cy="-148.726" rx="4.00001" ry="4.00001"/>
<polygon fill="#72058e" stroke="#72058e" points="777.845,-122.25 786.618,-115.671 780.262,-117.873 782.678,-113.496 782.678,-113.496 782.678,-113.496 780.262,-117.873 778.739,-111.321 777.845,-122.25 777.845,-122.25"/>
</g>
<!-- OtherSubcategory -->
<g id="node24" class="node"><title>OtherSubcategory</title>
<ellipse fill="none" stroke="black" cx="129" cy="-95" rx="101.116" ry="18.3848"/>
<text text-anchor="middle" x="129" y="-91.4" font-family="Times Roman,serif" font-size="14.00">OtherSubcategory</text>
</g>
<!-- OtherShop&#45;&gt;OtherSubcategory -->
<g id="edge48" class="edge"><title>OtherShop&#45;&gt;OtherSubcategory</title>
<path fill="none" stroke="#7efdda" d="M684.215,-167.951C594.286,-163.577 438.959,-153.766 307,-134 270.849,-128.585 231.07,-120.113 198.302,-112.447"/>
<polygon fill="#7efdda" stroke="#7efdda" points="684.327,-167.956 694.101,-172.927 689.321,-168.194 694.316,-168.432 694.316,-168.432 694.316,-168.432 689.321,-168.194 694.53,-163.938 684.327,-167.956 684.327,-167.956"/>
<polygon fill="#7efdda" stroke="#7efdda" points="198.101,-112.399 189.405,-105.719 193.235,-111.249 188.369,-110.098 188.369,-110.098 188.369,-110.098 193.235,-111.249 187.334,-114.477 198.101,-112.399 198.101,-112.399"/>
</g>
<!-- OtherShop&#45;&gt;Ad -->
<g id="edge56" class="edge"><title>OtherShop&#45;&gt;Ad</title>
<path fill="none" stroke="#42b4e9" d="M796.247,-150.487C818.317,-138.333 845.93,-123.126 866.664,-111.707"/>
<ellipse fill="none" stroke="#42b4e9" cx="792.448" cy="-152.579" rx="4.00002" ry="4.00002"/>
<polygon fill="#42b4e9" stroke="#42b4e9" points="866.903,-111.575 877.833,-110.693 871.282,-109.163 875.662,-106.751 875.662,-106.751 875.662,-106.751 871.282,-109.163 873.491,-102.81 866.903,-111.575 866.903,-111.575"/>
</g>
<!-- FoodSubcategorization -->
<g id="node12" class="node"><title>FoodSubcategorization</title>
<ellipse fill="none" stroke="black" cx="1803" cy="-19" rx="123.037" ry="18.3848"/>
<text text-anchor="middle" x="1803" y="-15.4" font-family="Times Roman,serif" font-size="14.00">FoodSubcategorization</text>
</g>
<!-- FoodShop -->
<g id="node17" class="node"><title>FoodShop</title>
<ellipse fill="none" stroke="black" cx="1114" cy="-171" rx="58.8978" ry="18.3848"/>
<text text-anchor="middle" x="1114" y="-167.4" font-family="Times Roman,serif" font-size="14.00">FoodShop</text>
</g>
<!-- FoodShop&#45;&gt;Image -->
<g id="edge82" class="edge"><title>FoodShop&#45;&gt;Image</title>
<path fill="none" stroke="#9dd399" d="M1054.03,-160.587C1036.92,-157.705 1018.24,-154.644 1001,-152 879.478,-133.361 848.061,-135.433 727,-114 713.509,-111.612 698.94,-108.631 685.612,-105.744"/>
<ellipse fill="none" stroke="#9dd399" cx="1058.35" cy="-161.318" rx="4.00001" ry="4.00001"/>
<polygon fill="#9dd399" stroke="#9dd399" points="685.468,-105.713 676.667,-99.171 680.584,-104.639 675.701,-103.566 675.701,-103.566 675.701,-103.566 680.584,-104.639 674.735,-107.961 685.468,-105.713 685.468,-105.713"/>
</g>
<!-- FoodShop&#45;&gt;Phone -->
<g id="edge84" class="edge"><title>FoodShop&#45;&gt;Phone</title>
<path fill="none" stroke="#05e76d" d="M1148.17,-149.35C1153.65,-144.777 1158.87,-139.616 1163,-134 1165.42,-130.704 1167.46,-126.948 1169.17,-123.099"/>
<ellipse fill="none" stroke="#05e76d" cx="1144.81" cy="-151.975" rx="4.00002" ry="4.00002"/>
<polygon fill="#05e76d" stroke="#05e76d" points="1169.24,-122.912 1176.96,-115.125 1170.99,-118.229 1172.74,-113.547 1172.74,-113.547 1172.74,-113.547 1170.99,-118.229 1168.53,-111.969 1169.24,-122.912 1169.24,-122.912"/>
</g>
<!-- FoodShop&#45;&gt;FoodSubcategorization -->
<g id="edge76" class="edge"><title>FoodShop&#45;&gt;FoodSubcategorization</title>
<path fill="none" stroke="#5f3cc2" d="M1155.98,-152.584C1207.01,-130.954 1296.21,-95.5491 1376,-76 1477.84,-51.0476 1596.2,-36.33 1682.45,-28.1209"/>
<ellipse fill="none" stroke="#5f3cc2" cx="1152.11" cy="-154.234" rx="4.00002" ry="4.00002"/>
<polygon fill="#5f3cc2" stroke="#5f3cc2" points="1682.58,-28.1085 1692.95,-31.6566 1687.56,-27.6423 1692.53,-27.1762 1692.53,-27.1762 1692.53,-27.1762 1687.56,-27.6423 1692.12,-22.6958 1682.58,-28.1085 1682.58,-28.1085"/>
</g>
<!-- FoodShop&#45;&gt;Deal -->
<g id="edge90" class="edge"><title>FoodShop&#45;&gt;Deal</title>
<path fill="none" stroke="#fa11ab" d="M1087.7,-148.023C1076.59,-138.319 1063.7,-127.057 1052.66,-117.414"/>
<ellipse fill="none" stroke="#fa11ab" cx="1090.81" cy="-150.741" rx="4.00002" ry="4.00002"/>
<polygon fill="#fa11ab" stroke="#fa11ab" points="1052.53,-117.303 1047.96,-107.335 1048.77,-114.014 1045,-110.724 1045,-110.724 1045,-110.724 1048.77,-114.014 1042.04,-114.113 1052.53,-117.303 1052.53,-117.303"/>
</g>
<!-- FoodShop&#45;&gt;Like -->
<g id="edge92" class="edge"><title>FoodShop&#45;&gt;Like</title>
<path fill="none" stroke="#01f5e7" d="M1103.71,-144.949C1095.57,-125.422 1083.39,-98.334 1070,-76 1063.39,-64.981 1055.09,-53.5417 1047.54,-43.8284"/>
<ellipse fill="none" stroke="#01f5e7" cx="1105.31" cy="-148.857" rx="4.00001" ry="4.00001"/>
<polygon fill="#01f5e7" stroke="#01f5e7" points="1047.38,-43.6262 1044.7,-32.9947 1044.28,-39.7085 1041.17,-35.7907 1041.17,-35.7907 1041.17,-35.7907 1044.28,-39.7085 1037.64,-38.5868 1047.38,-43.6262 1047.38,-43.6262"/>
</g>
<!-- FoodShop&#45;&gt;Event -->
<g id="edge88" class="edge"><title>FoodShop&#45;&gt;Event</title>
<path fill="none" stroke="#37bac2" d="M1165.94,-156.42C1172.98,-154.756 1180.14,-153.222 1187,-152 1267.46,-137.663 1293.44,-162.593 1370,-134 1380.03,-130.253 1389.92,-124.202 1398.49,-117.973"/>
<ellipse fill="none" stroke="#37bac2" cx="1161.65" cy="-157.472" rx="4.00001" ry="4.00001"/>
<polygon fill="#37bac2" stroke="#37bac2" points="1398.64,-117.857 1409.31,-115.331 1402.6,-114.81 1406.56,-111.763 1406.56,-111.763 1406.56,-111.763 1402.6,-114.81 1403.82,-108.195 1398.64,-117.857 1398.64,-117.857"/>
</g>
<!-- FoodShop&#45;&gt;Comment -->
<g id="edge80" class="edge"><title>FoodShop&#45;&gt;Comment</title>
<path fill="none" stroke="#864b23" d="M1056.81,-159.051C1005.4,-148.085 927.894,-131.007 861,-114 856.338,-112.815 851.508,-111.539 846.673,-110.23"/>
<ellipse fill="none" stroke="#864b23" cx="1060.92" cy="-159.925" rx="4.00001" ry="4.00001"/>
<polygon fill="#864b23" stroke="#864b23" points="846.439,-110.165 837.99,-103.174 841.618,-108.839 836.797,-107.513 836.797,-107.513 836.797,-107.513 841.618,-108.839 835.603,-111.852 846.439,-110.165 846.439,-110.165"/>
</g>
<!-- FoodSubcategory -->
<g id="node23" class="node"><title>FoodSubcategory</title>
<ellipse fill="none" stroke="black" cx="1803" cy="-95" rx="94.9596" ry="18.3848"/>
<text text-anchor="middle" x="1803" y="-91.4" font-family="Times Roman,serif" font-size="14.00">FoodSubcategory</text>
</g>
<!-- FoodShop&#45;&gt;FoodSubcategory -->
<g id="edge78" class="edge"><title>FoodShop&#45;&gt;FoodSubcategory</title>
<path fill="none" stroke="#96e303" d="M1167.77,-155.941C1174.22,-154.452 1180.73,-153.091 1187,-152 1274.49,-136.764 1297.57,-142.135 1386,-134 1496.11,-123.871 1622.54,-112.015 1707.06,-104.057"/>
<polygon fill="#96e303" stroke="#96e303" points="1167.47,-156.014 1156.69,-153.992 1162.61,-157.19 1157.75,-158.366 1157.75,-158.366 1157.75,-158.366 1162.61,-157.19 1158.81,-162.74 1167.47,-156.014 1167.47,-156.014"/>
<polygon fill="#96e303" stroke="#96e303" points="1707.2,-104.044 1717.58,-107.586 1712.18,-103.575 1717.15,-103.106 1717.15,-103.106 1717.15,-103.106 1712.18,-103.575 1716.73,-98.6256 1707.2,-104.044 1707.2,-104.044"/>
</g>
<!-- FoodShop&#45;&gt;Ad -->
<g id="edge86" class="edge"><title>FoodShop&#45;&gt;Ad</title>
<path fill="none" stroke="#f7ebbc" d="M1066.88,-154.497C1025.85,-140.129 967.377,-119.648 930.836,-106.85"/>
<ellipse fill="none" stroke="#f7ebbc" cx="1070.68" cy="-155.827" rx="4.00001" ry="4.00001"/>
<polygon fill="#f7ebbc" stroke="#f7ebbc" points="930.582,-106.762 922.632,-99.2089 925.863,-105.109 921.144,-103.456 921.144,-103.456 921.144,-103.456 925.863,-105.109 919.657,-107.703 930.582,-106.762 930.582,-106.762"/>
</g>
<!-- FoodCategory -->
<g id="node18" class="node"><title>FoodCategory</title>
<ellipse fill="none" stroke="black" cx="1221" cy="-263" rx="79.196" ry="18.3848"/>
<text text-anchor="middle" x="1221" y="-259.4" font-family="Times Roman,serif" font-size="14.00">FoodCategory</text>
</g>
<!-- FoodCategory&#45;&gt;FoodShop -->
<g id="edge96" class="edge"><title>FoodCategory&#45;&gt;FoodShop</title>
<path fill="none" stroke="#80da5e" d="M1228.38,-236.592C1229.55,-226.809 1228.83,-216.131 1223,-208 1219.37,-202.941 1193.46,-194.043 1167.81,-186.241"/>
<ellipse fill="none" stroke="#80da5e" cx="1227.69" cy="-240.581" rx="4.00001" ry="4.00001"/>
<polygon fill="#80da5e" stroke="#80da5e" points="1167.62,-186.184 1159.34,-179.004 1162.83,-184.749 1158.05,-183.314 1158.05,-183.314 1158.05,-183.314 1162.83,-184.749 1156.75,-187.625 1167.62,-186.184 1167.62,-186.184"/>
</g>
<!-- Event&#45;&gt;Like -->
<g id="edge100" class="edge"><title>Event&#45;&gt;Like</title>
<path fill="none" stroke="#00dd64" d="M1388.53,-78.597C1369.38,-70.6192 1345.31,-61.5726 1323,-56 1234.31,-33.8465 1127.2,-24.6525 1069.24,-21.0788"/>
<ellipse fill="none" stroke="#00dd64" cx="1392.46" cy="-80.2625" rx="4.00002" ry="4.00002"/>
<polygon fill="#00dd64" stroke="#00dd64" points="1068.98,-21.064 1059.27,-15.9829 1063.99,-20.7695 1059,-20.4751 1059,-20.4751 1059,-20.4751 1063.99,-20.7695 1058.74,-24.9673 1068.98,-21.064 1068.98,-21.064"/>
</g>
<!-- Attending -->
<g id="node27" class="node"><title>Attending</title>
<ellipse fill="none" stroke="black" cx="2067" cy="-19" rx="60.1041" ry="18.3848"/>
<text text-anchor="middle" x="2067" y="-15.4" font-family="Times Roman,serif" font-size="14.00">Attending</text>
</g>
<!-- Event&#45;&gt;Attending -->
<g id="edge102" class="edge"><title>Event&#45;&gt;Attending</title>
<path fill="none" stroke="#9c5678" d="M1472.52,-90.1961C1562.76,-80.9615 1765.1,-59.7162 1935,-38 1957.21,-35.1617 1981.47,-31.7571 2003.06,-28.6189"/>
<ellipse fill="none" stroke="#9c5678" cx="1468.38" cy="-90.619" rx="4" ry="4"/>
<polygon fill="#9c5678" stroke="#9c5678" points="2003.21,-28.5975 2013.76,-31.6039 2008.16,-27.8743 2013.11,-27.1512 2013.11,-27.1512 2013.11,-27.1512 2008.16,-27.8743 2012.45,-22.6985 2003.21,-28.5975 2003.21,-28.5975"/>
</g>
<!-- Admin -->
<g id="node20" class="node"><title>Admin</title>
<ellipse fill="none" stroke="black" cx="2429" cy="-263" rx="41.9273" ry="18.3848"/>
<text text-anchor="middle" x="2429" y="-259.4" font-family="Times Roman,serif" font-size="14.00">Admin</text>
</g>
<!-- FeedbackMessage -->
<g id="node22" class="node"><title>FeedbackMessage</title>
<ellipse fill="none" stroke="black" cx="2587" cy="-263" rx="97.7889" ry="18.3848"/>
<text text-anchor="middle" x="2587" y="-259.4" font-family="Times Roman,serif" font-size="14.00">FeedbackMessage</text>
</g>
<!-- FoodSubcategory&#45;&gt;FoodSubcategorization -->
<g id="edge112" class="edge"><title>FoodSubcategory&#45;&gt;FoodSubcategorization</title>
<path fill="none" stroke="#59a70c" d="M1803,-68.0731C1803,-61.4485 1803,-54.332 1803,-47.6302"/>
<ellipse fill="none" stroke="#59a70c" cx="1803" cy="-72.2135" rx="4" ry="4"/>
<polygon fill="#59a70c" stroke="#59a70c" points="1803,-47.5704 1807.5,-37.5704 1803,-42.5704 1803,-37.5704 1803,-37.5704 1803,-37.5704 1803,-42.5704 1798.5,-37.5705 1803,-47.5704 1803,-47.5704"/>
</g>
<!-- OtherSubcategory&#45;&gt;OtherSubcategorization -->
<g id="edge116" class="edge"><title>OtherSubcategory&#45;&gt;OtherSubcategorization</title>
<path fill="none" stroke="#b77285" d="M129,-68.0731C129,-61.4485 129,-54.332 129,-47.6302"/>
<ellipse fill="none" stroke="#b77285" cx="129" cy="-72.2135" rx="4" ry="4"/>
<polygon fill="#b77285" stroke="#b77285" points="129,-47.5704 133.5,-37.5704 129,-42.5704 129,-37.5704 129,-37.5704 129,-37.5704 129,-42.5704 124.5,-37.5705 129,-47.5704 129,-47.5704"/>
</g>
<!-- User -->
<g id="node25" class="node"><title>User</title>
<ellipse fill="none" stroke="black" cx="1514" cy="-263" rx="33.9411" ry="18.3848"/>
<text text-anchor="middle" x="1514" y="-259.4" font-family="Times Roman,serif" font-size="14.00">User</text>
</g>
<!-- User&#45;&gt;FunShop -->
<g id="edge136" class="edge"><title>User&#45;&gt;FunShop</title>
<path fill="none" stroke="#b9e11a" d="M1470,-259.094C1389.57,-251.829 1221.75,-236.064 1164,-226 1103.6,-215.474 1035.33,-197.977 989.998,-185.546"/>
<polygon fill="#b9e11a" stroke="#b9e11a" points="1470.33,-259.123 1479.89,-264.502 1475.31,-259.572 1480.29,-260.02 1480.29,-260.02 1480.29,-260.02 1475.31,-259.572 1480.69,-255.538 1470.33,-259.123 1470.33,-259.123"/>
<polygon fill="#b9e11a" stroke="#b9e11a" points="989.757,-185.48 981.316,-178.48 984.938,-184.149 980.118,-182.818 980.118,-182.818 980.118,-182.818 984.938,-184.149 978.92,-187.155 989.757,-185.48 989.757,-185.48"/>
<text text-anchor="middle" x="1218.5" y="-213.4" font-family="Times Roman,serif" font-size="14.00">liked_fun_shops</text>
</g>
<!-- User&#45;&gt;Phone -->
<g id="edge120" class="edge"><title>User&#45;&gt;Phone</title>
<path fill="none" stroke="#ced834" d="M1497.13,-239.286C1487.97,-228.132 1475.73,-215.635 1462,-208 1427.11,-188.595 1410.19,-206.848 1374,-190 1349.33,-178.516 1349.65,-165.461 1326,-152 1293.02,-133.227 1252.66,-118.222 1222.27,-108.328"/>
<ellipse fill="none" stroke="#ced834" cx="1499.67" cy="-242.51" rx="4.00002" ry="4.00002"/>
<polygon fill="#ced834" stroke="#ced834" points="1221.9,-108.209 1213.74,-100.884 1217.14,-106.69 1212.37,-105.171 1212.37,-105.171 1212.37,-105.171 1217.14,-106.69 1211,-109.458 1221.9,-108.209 1221.9,-108.209"/>
</g>
<!-- User&#45;&gt;Relationship -->
<g id="edge122" class="edge"><title>User&#45;&gt;Relationship</title>
<path fill="none" stroke="#1b3d95" d="M1556.19,-259.452C1622.37,-253.47 1744.5,-240.591 1758,-226 1764.42,-219.055 1766.48,-209.277 1766.59,-199.888"/>
<ellipse fill="none" stroke="#1b3d95" cx="1552" cy="-259.826" rx="4" ry="4"/>
<polygon fill="#1b3d95" stroke="#1b3d95" points="1766.58,-199.609 1770.51,-189.372 1766.3,-194.617 1766.02,-189.625 1766.02,-189.625 1766.02,-189.625 1766.3,-194.617 1761.52,-189.878 1766.58,-199.609 1766.58,-199.609"/>
</g>
<!-- User&#45;&gt;Relationship -->
<g id="edge126" class="edge"><title>User&#45;&gt;Relationship</title>
<path fill="none" stroke="#c8cc45" d="M1548.47,-248.361C1561.35,-242.232 1575.81,-234.542 1588,-226 1597.53,-219.327 1596.77,-213.539 1607,-208 1611.27,-205.687 1657.49,-194.779 1698.36,-185.401"/>
<ellipse fill="none" stroke="#c8cc45" cx="1544.73" cy="-250.099" rx="4.00002" ry="4.00002"/>
<polygon fill="#c8cc45" stroke="#c8cc45" points="1698.58,-185.35 1709.33,-187.505 1703.46,-184.234 1708.33,-183.118 1708.33,-183.118 1708.33,-183.118 1703.46,-184.234 1707.33,-178.732 1698.58,-185.35 1698.58,-185.35"/>
<text text-anchor="middle" x="1680.5" y="-213.4" font-family="Times Roman,serif" font-size="14.00">reverse_relationships</text>
</g>
<!-- User&#45;&gt;OtherShop -->
<g id="edge140" class="edge"><title>User&#45;&gt;OtherShop</title>
<path fill="none" stroke="#dab533" d="M1470.26,-258.415C1428.79,-254.193 1364.71,-247.996 1309,-244 1151.87,-232.728 1110.47,-251.439 955,-226 904.68,-217.766 848.826,-201.345 809.658,-188.579"/>
<polygon fill="#dab533" stroke="#dab533" points="1470.35,-258.424 1479.84,-263.92 1475.33,-258.933 1480.3,-259.443 1480.3,-259.443 1480.3,-259.443 1475.33,-258.933 1480.76,-254.966 1470.35,-258.424 1470.35,-258.424"/>
<polygon fill="#dab533" stroke="#dab533" points="809.57,-188.55 801.482,-181.146 804.822,-186.985 800.073,-185.419 800.073,-185.419 800.073,-185.419 804.822,-186.985 798.664,-189.693 809.57,-188.55 809.57,-188.55"/>
<text text-anchor="middle" x="1017" y="-213.4" font-family="Times Roman,serif" font-size="14.00">liked_other_shops</text>
</g>
<!-- User&#45;&gt;PollVote -->
<g id="edge146" class="edge"><title>User&#45;&gt;PollVote</title>
<path fill="none" stroke="#1b223b" d="M1556.22,-262.055C1679.65,-259.042 2034.11,-248.506 2081,-226 2132.05,-201.498 2124.1,-168.953 2167,-132 2173.19,-126.667 2180.18,-121.445 2187.05,-116.683"/>
<ellipse fill="none" stroke="#1b223b" cx="1552.08" cy="-262.155" rx="4" ry="4"/>
<polygon fill="#1b223b" stroke="#1b223b" points="2187.32,-116.505 2198.12,-114.659 2191.46,-113.715 2195.61,-110.925 2195.61,-110.925 2195.61,-110.925 2191.46,-113.715 2193.1,-107.19 2187.32,-116.505 2187.32,-116.505"/>
</g>
<!-- User&#45;&gt;Deal -->
<g id="edge134" class="edge"><title>User&#45;&gt;Deal</title>
<path fill="none" stroke="#c211bb" d="M1470.03,-260.295C1426.03,-256.46 1357.01,-247.348 1301,-226 1300.55,-225.827 1182.44,-152.214 1182,-152 1144.11,-133.492 1098.59,-117.435 1066.72,-107.123"/>
<polygon fill="#c211bb" stroke="#c211bb" points="1470.14,-260.304 1479.74,-265.604 1475.13,-260.711 1480.11,-261.119 1480.11,-261.119 1480.11,-261.119 1475.13,-260.711 1480.48,-256.634 1470.14,-260.304 1470.14,-260.304"/>
<polygon fill="#c211bb" stroke="#c211bb" points="1066.41,-107.023 1058.25,-99.6942 1061.64,-105.502 1056.88,-103.981 1056.88,-103.981 1056.88,-103.981 1061.64,-105.502 1055.51,-108.268 1066.41,-107.023 1066.41,-107.023"/>
<text text-anchor="middle" x="1279.5" y="-167.4" font-family="Times Roman,serif" font-size="14.00">liked_deals</text>
</g>
<!-- User&#45;&gt;Like -->
<g id="edge130" class="edge"><title>User&#45;&gt;Like</title>
<path fill="none" stroke="#4a1e39" d="M1506.47,-236.999C1502.27,-226.647 1496.02,-215.449 1487,-208 1463.56,-188.638 1448.67,-202.595 1421,-190 1393.29,-177.387 1389.98,-167.883 1364,-152 1304.93,-115.879 1291.96,-102.514 1228,-76 1174.1,-53.6566 1108.57,-36.8862 1067.31,-27.5075"/>
<ellipse fill="none" stroke="#4a1e39" cx="1507.91" cy="-240.92" rx="4.00001" ry="4.00001"/>
<polygon fill="#4a1e39" stroke="#4a1e39" points="1067.13,-27.466 1058.35,-20.892 1062.25,-26.3748 1057.37,-25.2835 1057.37,-25.2835 1057.37,-25.2835 1062.25,-26.3748 1056.38,-29.675 1067.13,-27.466 1067.13,-27.466"/>
</g>
<!-- User&#45;&gt;FoodShop -->
<g id="edge138" class="edge"><title>User&#45;&gt;FoodShop</title>
<path fill="none" stroke="#6d0220" d="M1471.98,-254.17C1437.94,-246.916 1388.78,-236.208 1346,-226 1314.75,-218.544 1307.31,-215.186 1276,-208 1236.67,-198.972 1226.32,-199.086 1187,-190 1181.2,-188.659 1175.15,-187.195 1169.13,-185.693"/>
<polygon fill="#6d0220" stroke="#6d0220" points="1472.25,-254.228 1481.09,-260.708 1477.14,-255.267 1482.03,-256.306 1482.03,-256.306 1482.03,-256.306 1477.14,-255.267 1482.97,-251.904 1472.25,-254.228 1472.25,-254.228"/>
<polygon fill="#6d0220" stroke="#6d0220" points="1168.77,-185.602 1160.18,-178.784 1163.92,-184.374 1159.08,-183.147 1159.08,-183.147 1159.08,-183.147 1163.92,-184.374 1157.97,-187.509 1168.77,-185.602 1168.77,-185.602"/>
<text text-anchor="middle" x="1404" y="-213.4" font-family="Times Roman,serif" font-size="14.00">liked_food_shops</text>
</g>
<!-- User&#45;&gt;Event -->
<g id="edge132" class="edge"><title>User&#45;&gt;Event</title>
<path fill="none" stroke="#61be3a" d="M1535.65,-238.04C1553.29,-214.518 1572.61,-178.957 1555,-152 1536.97,-124.411 1502.3,-110.092 1473.3,-102.707"/>
<polygon fill="#61be3a" stroke="#61be3a" points="1535.48,-238.259 1525.76,-243.343 1532.39,-242.191 1529.3,-246.123 1529.3,-246.123 1529.3,-246.123 1532.39,-242.191 1532.84,-248.902 1535.48,-238.259 1535.48,-238.259"/>
<polygon fill="#61be3a" stroke="#61be3a" points="1473.05,-102.649 1464.34,-95.9917 1468.18,-101.511 1463.31,-100.374 1463.31,-100.374 1463.31,-100.374 1468.18,-101.511 1462.29,-104.756 1473.05,-102.649 1473.05,-102.649"/>
<text text-anchor="middle" x="1605" y="-167.4" font-family="Times Roman,serif" font-size="14.00">liked_events</text>
</g>
<!-- User&#45;&gt;Event -->
<g id="edge144" class="edge"><title>User&#45;&gt;Event</title>
<path fill="none" stroke="#11b95f" d="M1519.47,-234.285C1519.65,-224.99 1517.97,-215.227 1512,-208 1489.35,-180.565 1457.44,-216.766 1434,-190 1425.63,-180.446 1424.06,-148.263 1424.14,-123.982"/>
<polygon fill="#11b95f" stroke="#11b95f" points="1519.45,-234.458 1514.1,-244.03 1519.02,-239.439 1518.59,-244.42 1518.59,-244.42 1518.59,-244.42 1519.02,-239.439 1523.07,-244.81 1519.45,-234.458 1519.45,-234.458"/>
<polygon fill="#11b95f" stroke="#11b95f" points="1424.15,-123.82 1428.77,-113.878 1424.21,-118.82 1424.27,-113.82 1424.27,-113.82 1424.27,-113.82 1424.21,-118.82 1419.77,-113.763 1424.15,-123.82 1424.15,-123.82"/>
<text text-anchor="middle" x="1492.5" y="-167.4" font-family="Times Roman,serif" font-size="14.00">attended_events</text>
</g>
<!-- User&#45;&gt;User -->
<g id="edge124" class="edge"><title>User&#45;&gt;User</title>
<path fill="none" stroke="#f7c435" d="M1557.54,-266.05C1562.66,-265.491 1566,-264.474 1566,-263 1566,-261.526 1562.66,-260.509 1557.54,-259.95"/>
<polygon fill="#f7c435" stroke="#f7c435" points="1557.5,-266.052 1547.28,-262.065 1552.5,-266.305 1547.51,-266.559 1547.51,-266.559 1547.51,-266.559 1552.5,-266.305 1547.74,-271.053 1557.5,-266.052 1557.5,-266.052"/>
<polygon fill="#f7c435" stroke="#f7c435" points="1557.5,-259.948 1547.74,-254.947 1552.5,-259.695 1547.51,-259.441 1547.51,-259.441 1547.51,-259.441 1552.5,-259.695 1547.28,-263.935 1557.5,-259.948 1557.5,-259.948"/>
<text text-anchor="middle" x="1617.5" y="-259.4" font-family="Times Roman,serif" font-size="14.00">followed_users</text>
</g>
<!-- User&#45;&gt;User -->
<g id="edge128" class="edge"><title>User&#45;&gt;User</title>
<path fill="none" stroke="#fa23d3" d="M1550.88,-276.289C1597.85,-284.154 1669,-279.724 1669,-263 1669,-246.276 1597.85,-241.846 1550.88,-249.711"/>
<polygon fill="#fa23d3" stroke="#fa23d3" points="1550.79,-276.271 1541.83,-269.943 1545.88,-275.315 1540.97,-274.36 1540.97,-274.36 1540.97,-274.36 1545.88,-275.315 1540.11,-278.777 1550.79,-276.271 1550.79,-276.271"/>
<polygon fill="#fa23d3" stroke="#fa23d3" points="1550.79,-249.729 1540.11,-247.223 1545.88,-250.685 1540.97,-251.64 1540.97,-251.64 1540.97,-251.64 1545.88,-250.685 1541.83,-256.057 1550.79,-249.729 1550.79,-249.729"/>
<text text-anchor="middle" x="1700.5" y="-259.4" font-family="Times Roman,serif" font-size="14.00">followers</text>
</g>
<!-- User&#45;&gt;Attending -->
<g id="edge142" class="edge"><title>User&#45;&gt;Attending</title>
<path fill="none" stroke="#f1257c" d="M1555.88,-259.401C1654.48,-250.439 1898.46,-225.28 1972,-190 2008.24,-172.616 2021.84,-168.171 2043,-134 2059.27,-107.716 2064.69,-72.243 2066.4,-47.6758"/>
<ellipse fill="none" stroke="#f1257c" cx="1551.62" cy="-259.784" rx="4" ry="4"/>
<polygon fill="#f1257c" stroke="#f1257c" points="2066.41,-47.5367 2071.43,-37.7904 2066.67,-42.5438 2066.94,-37.5509 2066.94,-37.5509 2066.94,-37.5509 2066.67,-42.5438 2062.45,-37.3114 2066.41,-47.5367 2066.41,-47.5367"/>
</g>
<!-- VotedPoll -->
<g id="node104" class="node"><title>VotedPoll</title>
<ellipse fill="none" stroke="black" cx="1907" cy="-171" rx="56.0679" ry="18.3848"/>
<text text-anchor="middle" x="1907" y="-167.4" font-family="Times Roman,serif" font-size="14.00">VotedPoll</text>
</g>
<!-- User&#45;&gt;VotedPoll -->
<g id="edge148" class="edge"><title>User&#45;&gt;VotedPoll</title>
<path fill="none" stroke="#ef8cc5" d="M1558.07,-260.247C1610.71,-256.168 1701.06,-246.652 1776,-226 1807.52,-217.313 1841.53,-202.875 1866.99,-190.971"/>
<polygon fill="#ef8cc5" stroke="#ef8cc5" points="1558.04,-260.249 1547.73,-256.504 1553.05,-260.62 1548.07,-260.992 1548.07,-260.992 1548.07,-260.992 1553.05,-260.62 1548.4,-265.479 1558.04,-260.249 1558.04,-260.249"/>
<polygon fill="#ef8cc5" stroke="#ef8cc5" points="1867.27,-190.837 1878.24,-190.615 1871.79,-188.693 1876.31,-186.55 1876.31,-186.55 1876.31,-186.55 1871.79,-188.693 1874.38,-182.484 1867.27,-190.837 1867.27,-190.837"/>
</g>
<!-- OtherCategory -->
<g id="node28" class="node"><title>OtherCategory</title>
<ellipse fill="none" stroke="black" cx="759" cy="-263" rx="84.8528" ry="18.3848"/>
<text text-anchor="middle" x="759" y="-259.4" font-family="Times Roman,serif" font-size="14.00">OtherCategory</text>
</g>
<!-- OtherCategory&#45;&gt;OtherShop -->
<g id="edge156" class="edge"><title>OtherCategory&#45;&gt;OtherShop</title>
<path fill="none" stroke="#9d9549" d="M759,-236.029C759,-224.599 759,-211.267 759,-199.66"/>
<ellipse fill="none" stroke="#9d9549" cx="759" cy="-240.382" rx="4" ry="4"/>
<polygon fill="#9d9549" stroke="#9d9549" points="759,-199.59 763.5,-189.59 759,-194.59 759,-189.59 759,-189.59 759,-189.59 759,-194.59 754.5,-189.59 759,-199.59 759,-199.59"/>
</g>
<!-- ActiveRecord::Base -->
<g id="node29" class="node"><title>ActiveRecord::Base</title>
<ellipse fill="none" stroke="black" cx="1221" cy="-367" rx="103.945" ry="18.3848"/>
<text text-anchor="middle" x="1221" y="-363.4" font-family="Times Roman,serif" font-size="14.00">ActiveRecord::Base</text>
</g>
<!-- ActiveRecord::Base&#45;&gt;Image -->
<g id="edge2" class="edge"><title>ActiveRecord::Base&#45;&gt;Image</title>
<path fill="none" stroke="black" d="M1187.4,-349.372C1165.45,-338.782 1135.79,-326.195 1108,-320 932.573,-280.892 880.885,-333.874 704,-302 675.505,-296.865 659.231,-305.269 642,-282 604.417,-231.247 622.211,-149.67 632.929,-113.404"/>
</g>
<!-- ActiveRecord::Base&#45;&gt;FunShop -->
<g id="edge22" class="edge"><title>ActiveRecord::Base&#45;&gt;FunShop</title>
<path fill="none" stroke="black" d="M1184.23,-349.674C1162.44,-339.922 1134.07,-328.112 1108,-320 1030.34,-295.836 987.528,-338.47 929,-282 904.912,-258.759 905.502,-240.096 915,-208 916.955,-201.392 920.502,-194.858 924.28,-189.161"/>
</g>
<!-- ActiveRecord::Base&#45;&gt;PollOption -->
<g id="edge26" class="edge"><title>ActiveRecord::Base&#45;&gt;PollOption</title>
<path fill="none" stroke="black" d="M1323.25,-363.245C1540.54,-354.782 2042.08,-332.544 2210,-302 2240.16,-296.515 2257.74,-306.616 2276,-282 2296.01,-255.031 2286.05,-213.444 2277.61,-189.569"/>
</g>
<!-- ActiveRecord::Base&#45;&gt;FunSubcategory -->
<g id="edge30" class="edge"><title>ActiveRecord::Base&#45;&gt;FunSubcategory</title>
<path fill="none" stroke="black" d="M1187.43,-349.239C1165.49,-338.596 1135.83,-326 1108,-320 1043.89,-306.178 573.293,-337.274 518,-302 449.849,-258.523 424.603,-155.709 416.901,-113.538"/>
</g>
<!-- ActiveRecord::Base&#45;&gt;Phone -->
<g id="edge32" class="edge"><title>ActiveRecord::Base&#45;&gt;Phone</title>
<path fill="none" stroke="black" d="M1254.7,-349.245C1274.32,-337.702 1298.54,-321.241 1316,-302 1333.63,-282.568 1330.99,-269.932 1327,-244 1320.48,-201.627 1326.2,-184.289 1298,-152 1276.16,-126.991 1240.96,-112.136 1214.15,-103.895"/>
</g>
<!-- ActiveRecord::Base&#45;&gt;FunSubcategorization -->
<g id="edge34" class="edge"><title>ActiveRecord::Base&#45;&gt;FunSubcategorization</title>
<path fill="none" stroke="black" d="M1187.43,-349.237C1165.49,-338.593 1135.83,-325.996 1108,-320 978.684,-292.139 644.735,-314.022 513,-302 455.912,-296.79 258,-320.326 258,-263 258,-263 258,-263 258,-95 258,-72.1792 312.635,-49.752 357.239,-35.2449"/>
</g>
<!-- ActiveRecord::Base&#45;&gt;FunCategory -->
<g id="edge38" class="edge"><title>ActiveRecord::Base&#45;&gt;FunCategory</title>
<path fill="none" stroke="black" d="M1185.55,-349.358C1146.41,-329.886 1083.9,-298.78 1045.55,-279.695"/>
</g>
<!-- ActiveRecord::Base&#45;&gt;Poll -->
<g id="edge42" class="edge"><title>ActiveRecord::Base&#45;&gt;Poll</title>
<path fill="none" stroke="black" d="M1323.95,-363.954C1558.11,-356.481 2116.42,-335.375 2195,-302 2206.5,-297.114 2216.95,-287.812 2224.67,-279.517"/>
</g>
<!-- ActiveRecord::Base&#45;&gt;Relationship -->
<g id="edge44" class="edge"><title>ActiveRecord::Base&#45;&gt;Relationship</title>
<path fill="none" stroke="black" d="M1323.3,-363.498C1460.88,-356.716 1695.62,-337.187 1759,-282 1784.45,-259.841 1782.07,-241.195 1776,-208 1774.86,-201.784 1772.74,-195.258 1770.48,-189.446"/>
</g>
<!-- ActiveRecord::Base&#45;&gt;OtherShop -->
<g id="edge64" class="edge"><title>ActiveRecord::Base&#45;&gt;OtherShop</title>
<path fill="none" stroke="black" d="M1186.86,-349.372C1164.93,-338.924 1135.5,-326.491 1108,-320 1059.92,-308.652 697.992,-318.772 665,-282 635.488,-249.107 690.251,-209.314 727.86,-187.426"/>
</g>
<!-- ActiveRecord::Base&#45;&gt;FoodSubcategorization -->
<g id="edge66" class="edge"><title>ActiveRecord::Base&#45;&gt;FoodSubcategorization</title>
<path fill="none" stroke="black" d="M1324.97,-365.957C1566.1,-362.158 2143,-344.549 2143,-263 2143,-263 2143,-263 2143,-95 2143,-69.7099 1997.88,-45.026 1897.26,-30.9507"/>
</g>
<!-- ActiveRecord::Base&#45;&gt;PollVote -->
<g id="edge68" class="edge"><title>ActiveRecord::Base&#45;&gt;PollVote</title>
<path fill="none" stroke="black" d="M1322.79,-363.051C1558.64,-353.482 2124.97,-327.926 2157,-302 2210.91,-258.366 2177.94,-217.749 2200,-152 2204.39,-138.927 2209.99,-124.432 2214.45,-113.331"/>
</g>
<!-- ActiveRecord::Base&#45;&gt;OtherSubcategorization -->
<g id="edge70" class="edge"><title>ActiveRecord::Base&#45;&gt;OtherSubcategorization</title>
<path fill="none" stroke="black" d="M1187.94,-349.385C1165.96,-338.654 1136.07,-325.907 1108,-320 1013.39,-300.088 334.282,-310.84 238,-302 184.63,-297.1 0,-316.594 0,-263 0,-263 0,-263 0,-95 0,-64.0676 27.8743,-45.4706 57.7085,-34.4248"/>
</g>
<!-- ActiveRecord::Base&#45;&gt;Deal -->
<g id="edge72" class="edge"><title>ActiveRecord::Base&#45;&gt;Deal</title>
<path fill="none" stroke="black" d="M1201.41,-348.793C1183.33,-331.824 1155.9,-305.653 1133,-282 1102.14,-250.126 1097.42,-239.325 1066,-208 1057.53,-199.556 1051.92,-200.392 1046,-190 1032.35,-166.03 1028.39,-133.784 1027.31,-113.702"/>
</g>
<!-- ActiveRecord::Base&#45;&gt;Like -->
<g id="edge74" class="edge"><title>ActiveRecord::Base&#45;&gt;Like</title>
<path fill="none" stroke="black" d="M1187.41,-349.35C1165.45,-338.752 1135.8,-326.163 1108,-320 1045.21,-306.078 532,-327.313 532,-263 532,-263 532,-263 532,-95 532,-47.9956 885.214,-26.1722 994.903,-20.5282"/>
</g>
<!-- ActiveRecord::Base&#45;&gt;FoodShop -->
<g id="edge94" class="edge"><title>ActiveRecord::Base&#45;&gt;FoodShop</title>
<path fill="none" stroke="black" d="M1249.88,-349.048C1283.8,-325.606 1332.61,-282.957 1309,-244 1307.88,-242.151 1242.01,-208.808 1240,-208 1225.15,-202.011 1188.64,-191.451 1158.73,-183.141"/>
</g>
<!-- ActiveRecord::Base&#45;&gt;FoodCategory -->
<g id="edge98" class="edge"><title>ActiveRecord::Base&#45;&gt;FoodCategory</title>
<path fill="none" stroke="black" d="M1221,-348.407C1221,-329.594 1221,-300.664 1221,-281.783"/>
</g>
<!-- ActiveRecord::Base&#45;&gt;Event -->
<g id="edge104" class="edge"><title>ActiveRecord::Base&#45;&gt;Event</title>
<path fill="none" stroke="black" d="M1323.53,-363.558C1429.79,-357.832 1599.78,-342.585 1741,-302 1761.26,-296.178 1764.98,-291.077 1784,-282 1867.96,-241.938 1922.76,-268.921 1972,-190 1980.94,-175.672 1983.31,-164.546 1972,-152 1954.98,-133.116 1587.61,-106.196 1464.67,-97.6859"/>
</g>
<!-- ActiveRecord::Base&#45;&gt;Admin -->
<g id="edge106" class="edge"><title>ActiveRecord::Base&#45;&gt;Admin</title>
<path fill="none" stroke="black" d="M1324.03,-364.395C1588.13,-357.263 2275.42,-335.679 2373,-302 2386.78,-297.246 2400.24,-288.057 2410.51,-279.792"/>
</g>
<!-- ActiveRecord::Base&#45;&gt;Comment -->
<g id="edge108" class="edge"><title>ActiveRecord::Base&#45;&gt;Comment</title>
<path fill="none" stroke="black" d="M1187.4,-349.395C1165.44,-338.814 1135.78,-326.229 1108,-320 1058.5,-308.901 683.699,-322.389 653,-282 628.075,-249.207 669.324,-170.17 685,-152 702.786,-131.385 729.893,-117.165 752.625,-108.084"/>
</g>
<!-- ActiveRecord::Base&#45;&gt;FeedbackMessage -->
<g id="edge110" class="edge"><title>ActiveRecord::Base&#45;&gt;FeedbackMessage</title>
<path fill="none" stroke="black" d="M1324.95,-366.05C1529.49,-363.113 1998.33,-351.104 2389,-302 2435.06,-296.211 2486.48,-285.967 2525.38,-277.43"/>
</g>
<!-- ActiveRecord::Base&#45;&gt;FoodSubcategory -->
<g id="edge114" class="edge"><title>ActiveRecord::Base&#45;&gt;FoodSubcategory</title>
<path fill="none" stroke="black" d="M1315.93,-359.425C1469.14,-346.361 1763.69,-317.546 1862,-282 1910.63,-264.415 1925.56,-260.601 1964,-226 1989.8,-202.773 2009.64,-179.913 1989,-152 1974.84,-132.855 1919.86,-117.508 1873.31,-107.583"/>
</g>
<!-- ActiveRecord::Base&#45;&gt;OtherSubcategory -->
<g id="edge118" class="edge"><title>ActiveRecord::Base&#45;&gt;OtherSubcategory</title>
<path fill="none" stroke="black" d="M1187.94,-349.386C1165.96,-338.656 1136.07,-325.909 1108,-320 1061.02,-310.109 285.123,-326.777 244,-302 173.221,-259.355 142.693,-156.067 132.843,-113.653"/>
</g>
<!-- ActiveRecord::Base&#45;&gt;User -->
<g id="edge150" class="edge"><title>ActiveRecord::Base&#45;&gt;User</title>
<path fill="none" stroke="black" d="M1267.75,-350.406C1328.98,-328.671 1434.5,-291.22 1485.18,-273.23"/>
</g>
<!-- ActiveRecord::Base&#45;&gt;Ad -->
<g id="edge152" class="edge"><title>ActiveRecord::Base&#45;&gt;Ad</title>
<path fill="none" stroke="black" d="M1186.26,-349.558C1164.34,-339.318 1135.15,-327.042 1108,-320 1019.15,-296.953 965.8,-350.765 905,-282 865.851,-237.723 867.075,-210.263 877,-152 879.307,-138.457 884.49,-123.848 889.002,-112.811"/>
</g>
<!-- ActiveRecord::Base&#45;&gt;Attending -->
<g id="edge154" class="edge"><title>ActiveRecord::Base&#45;&gt;Attending</title>
<path fill="none" stroke="black" d="M1323.24,-363.535C1544.45,-355.534 2061.48,-333.974 2234,-302 2291.22,-291.395 2359,-321.197 2359,-263 2359,-263 2359,-263 2359,-95 2359,-47.3311 2211.41,-29.0286 2126.09,-22.4305"/>
</g>
<!-- ActiveRecord::Base&#45;&gt;OtherCategory -->
<g id="edge158" class="edge"><title>ActiveRecord::Base&#45;&gt;OtherCategory</title>
<path fill="none" stroke="black" d="M1186.85,-349.395C1164.92,-338.956 1135.5,-326.525 1108,-320 999.612,-294.276 966.626,-326.699 858,-302 836.204,-297.044 812.895,-288.06 794.373,-279.963"/>
</g>
</g>
</svg>
